<?xml version="1.0" encoding="utf-8"?>
<!-- Generator: Adobe Illustrator 24.1.0, SVG Export Plug-In . SVG Version: 6.00 Build 0)  -->
<svg version="1.1" id="icon" xmlns="http://www.w3.org/2000/svg" xmlns:xlink="http://www.w3.org/1999/xlink" x="0px" y="0px"
	 viewBox="0 0 24 24" style="enable-background:new 0 0 24 24;" xml:space="preserve">
<style type="text/css">
	.st0{fill:#C4C4C4;}
</style>
<path id="double-right-quote" class="st0" d="M19.4,6.7C20.4,7.8,21,9,21,11c0,3.5-2.5,6.6-6,8.2l-0.9-1.4c3.3-1.8,4-4.1,4.2-5.6
	c-0.5,0.3-1.2,0.4-1.9,0.3c-1.8-0.2-3.2-1.6-3.2-3.5c0-1.9,1.6-3.5,3.5-3.5C17.7,5.5,18.8,6,19.4,6.7z M9.4,6.7C10.4,7.8,11,9,11,11
	c0,3.5-2.5,6.6-6,8.2l-0.9-1.4c3.3-1.8,4-4.1,4.2-5.6c-0.5,0.3-1.2,0.4-1.9,0.3C4.6,12.3,3.2,10.8,3.2,9c0-1.9,1.6-3.5,3.5-3.5
	C7.7,5.5,8.8,6,9.4,6.7L9.4,6.7z"/>
</svg>
