<?xml version="1.0" encoding="utf-8"?>
<!-- Generator: Adobe Illustrator 24.0.3, SVG Export Plug-In . SVG Version: 6.00 Build 0)  -->
<svg version="1.1" id="embello-logo" xmlns="http://www.w3.org/2000/svg" xmlns:xlink="http://www.w3.org/1999/xlink" x="0px"
	 y="0px" viewBox="0 0 145 16" style="enable-background:new 0 0 145 16;" xml:space="preserve">
<style type="text/css">
	.st0{fill:#FFFFFF;}
</style>
<path id="embello" class="st0" d="M142.8,2.2c1.4,1.4,2.2,3.3,2.2,5.8s-0.7,4.4-2.2,5.8c-1.4,1.4-3.5,2.1-6.2,2.1
	c-2.7,0-4.8-0.7-6.2-2.1c-1.4-1.4-2.2-3.4-2.2-5.8s0.7-4.4,2.2-5.8c1.4-1.4,3.5-2.2,6.2-2.2C139.3,0,141.4,0.7,142.8,2.2z M131.2,8
	c0,4.5,2,7.2,5.4,7.2c3.4,0,5.4-2.8,5.4-7.2s-1.9-7.2-5.4-7.2C133.1,0.7,131.2,3.5,131.2,8z M11,15.1l-0.7,0.7H0V0.1h10.8l-0.7,0.7
	H2.7v7h6.7L8.8,8.5h-6v6.6L11,15.1L11,15.1z M34.8,15.8L34.1,4.1l-5.3,11.9H28L22,3.4l-0.6,6.9l-0.8,1l0.8-11.2h2l6,12.6l5.4-12.6h2
	l0.9,15.8L34.8,15.8L34.8,15.8z M50.3,0.8V8h2.4c2.9,0,3.7-2,3.7-3.6c0-2-1.3-3.6-3.9-3.6H50.3z M53.3,16l0.9-0.6
	c2.1-0.1,3.2-1.8,3.2-3.5c0-1.9-1.2-3.4-4-3.4h-3.2v6.5v0.8h-2.7V0.1h5.3c2.1,0,3.7,0.4,4.8,1.3c1,0.8,1.6,1.8,1.6,2.9
	c0,1.6-1,3.1-3.1,3.8c2.8,0.3,4.3,2,4.3,3.9c0,2-1.7,3.6-5.3,3.8 M81,15.1l-0.7,0.7H70V0.1h10.8l-0.7,0.7h-7.4v7h6.7l-0.7,0.7h-6
	v6.6L81,15.1L81,15.1z M101.2,15.1l-0.7,0.7H90.3V0.1H93v15H101.2z M121.2,15.1l-0.7,0.7h-10.2V0.1h2.7v15H121.2z"/>
</svg>
