<?xml version="1.0" encoding="utf-8"?>
<!-- Generator: Adobe Illustrator 24.0.3, SVG Export Plug-In . SVG Version: 6.00 Build 0)  -->
<svg version="1.1" id="verde-natural-logo-horizontal"
	 xmlns="http://www.w3.org/2000/svg" xmlns:xlink="http://www.w3.org/1999/xlink" x="0px" y="0px" viewBox="0 0 145 40"
	 style="enable-background:new 0 0 145 40;" xml:space="preserve">
<style type="text/css">
	.st0{display:none;}
	.st1{fill:#FFFFFF;}
</style>
<rect x="1.5" y="-21" class="st0" width="142" height="82"/>
<path class="st1" d="M144.8,39.1c0-0.1,0-0.2-0.1-0.3c-0.3-1.5-0.4-3-0.3-4.5c0-0.2,0-0.4,0.1-0.5c0,0,0,0,0,0l0,0
	c0-0.1,0-0.1,0-0.2c0,0,0,0,0,0l0,0c0,0,0,0,0,0c0,0,0,0,0,0l0,0c0,0,0,0,0,0c-0.1,0-0.1,0-0.2,0l0,0c0,0,0,0,0,0
	c-0.4,0-0.8-0.1-1.2-0.1c0,0,0,0,0,0l0,0c-0.1,0-0.3,0-0.4,0c0,0,0,0,0,0l0,0c0,0,0,0,0,0c0,0.1,0,0.2,0,0.3l0,0c0,0,0,0,0,0
	c-0.2,1.5-0.3,2.5-0.4,2.9c-0.1,0.4-0.2,0.6-0.4,0.8c-0.2,0.1-0.5,0.2-0.9,0.2c-0.4,0-1.9,0-4.3-0.1c-0.1-3.1,0-6,0.1-8.8
	c0-0.4,0.1-0.7,0.3-0.8c0.2-0.2,0.4-0.2,0.8-0.2c0.9,0,1.6,0,2,0c0,0,0,0,0,0.1l0-0.1c0.2,0,0.3,0,0.4,0c0,0,0,0,0,0l0,0
	c0,0,0.1,0,0.1,0c0,0,0-0.1,0-0.1l0,0c0,0,0,0,0,0c0-0.1,0-0.2,0-0.4l0,0c0,0,0,0,0,0c0-0.3,0-0.7,0-1c0,0,0,0,0,0l0,0
	c0,0,0-0.1,0-0.1c0,0,0,0,0,0l0,0c0,0,0,0,0-0.1c0,0,0,0-0.1,0l0,0c0,0,0,0,0,0c0,0-0.1,0-0.1,0l0,0c0,0,0,0,0,0c-0.1,0-0.2,0-0.3,0
	c0,0,0,0,0,0c-0.1,0-0.2,0-0.3,0c0.1,0,0.1,0,0.2,0c-0.9,0-2.2,0-3.9,0c-0.1,0-0.1,0-0.2,0c1.3-0.1,2.6-0.2,3.9,0
	c-0.5-0.1-1.1-0.2-1.6-0.3c-2-0.1-4.1,0.1-6.1,0.2l-0.1,0l0,0.1c0,0.4,0.1,0.8,0.1,1.2c0,0,0,0,0,0c0,0,0,0,0,0l0,0
	c0,0.1,0,0.2,0,0.4c0,0,0,0,0,0l0,0c0,0,0,0,0,0c0,0,0,0,0,0l0,0c0,0,0,0,0,0c0.1,0,0.2,0,0.4,0l0,0c0,0,0,0,0,0c0.1,0,0.1,0,0.2,0
	c0.4,0,0.8,0,1.3,0c0.1,0,0.3,0,0.4,0c0.3,0.1,0.5,0.2,0.5,0.5c0.1,0.4,0,0.9,0,1.3c-0.1,0.9-0.1,1.8-0.2,2.7
	c-0.1,0.9-0.1,1.8-0.1,2.7c0,0.3,0,0.5,0,0.8c0,0,0,0.1,0,0.1c0,0.2,0,0.3,0,0.5c0,0,0,0,0,0c-0.1,0.3-0.4,0.6-0.7,0.8
	c-0.6,0-1.2,0-1.8,0.1l-0.1,0c-0.3-0.1-0.6,0-0.6,0.3c-0.1,0.5-0.2,1-0.3,1.5c-0.1,0.3,0.1,0.5,0.3,0.6c0.1,0.1,0.2,0.2,0.4,0.2
	c1.8-0.1,3.6-0.1,5.4-0.1c0.8,0.1,1.6,0.1,2.4,0.2c1.6,0,3.2,0.4,4.8,0.1l1-0.1L144.8,39.1z M134.6,34.4
	C134.6,34.4,134.6,34.4,134.6,34.4C134.6,34.4,134.6,34.4,134.6,34.4C134.6,34.4,134.6,34.4,134.6,34.4z M143.1,39.2
	C143.1,39.2,143.1,39.2,143.1,39.2C143.1,39.2,143.1,39.2,143.1,39.2C143.1,39.2,143.1,39.2,143.1,39.2z M123.7,38L123.7,38
	c-0.1-0.2-0.1-0.3-0.1-0.4c0,0,0,0,0,0l0,0c0,0,0,0,0-0.1c0,0,0,0-0.1,0l0,0c0,0,0,0,0,0c-0.1,0-0.2,0-0.4,0l0,0c0,0,0,0,0,0
	c0,0,0,0,0,0c-0.3,0-0.6-0.1-0.8-0.2c-0.2-0.1-0.3-0.4-0.5-0.7c-0.3-0.8-0.6-1.6-0.9-2.3c0-0.1-0.1-0.2-0.1-0.3c0,0,0,0.1,0,0.1
	c0-0.1-0.1-0.2-0.1-0.4c0,0,0,0,0,0c0,0.1,0,0.2,0.1,0.3c0-0.1,0-0.2,0-0.3c0.1-0.1,0.2-0.3,0.1-0.5c-0.1-0.5-0.3-0.9-0.6-1.3
	c-0.7-2-1.7-3.9-2.4-5.8c0,0,0,0,0-0.1c-0.6,0.1-1.6,0.1-3,0.1c-1-0.1-2.1-0.2-3.2-0.4l-0.3,0l0,0.3c-0.1,0.6-0.1,1.1-0.1,1.7l0,0.4
	l0.5,0c0.4,0,0.8,0,1.3,0l0.3,0c0.1,0,0.2,0,0.2,0c0.1,0,0.1,0,0.1,0c0.1,0.1-0.1,0.6-0.2,1c0,0,0,0,0,0c-0.1,0.3-0.3,0.7-0.4,1
	c-0.3,0.7-0.6,1.4-0.8,2.2c-0.4,1.1-0.8,2.2-1.2,3.3c-0.3,0.5-0.7,0.9-1.1,1.2c-0.1,0-0.1,0.1-0.2,0.1c-0.2,0-0.4-0.1-0.5-0.1
	c-0.3-0.1-0.5,0.1-0.6,0.3c-0.1,0.1-0.1,0.2-0.1,0.3c0,0.6,0,1.2,0,1.7c0,0.2,0.1,0.3,0.1,0.3l0,0.1l0.1,0c0.1,0.1,0.3,0.1,0.4,0
	l0.1,0c0.3,0,0.7,0,1,0c1.7,0,3.4,0.4,5,0.1l0.9-0.2l-0.1-0.6l0,0c-0.1-0.5-0.2-1.1-0.3-1.6l-0.1-0.4l-0.3,0
	c-0.6,0.1-1.2,0.3-1.8,0.3c-0.2,0-0.4-0.2-0.4-0.4c0-0.1,0-0.2,0-0.2c0-0.1,0.1-0.4,0.3-1c0,0,0.1-0.2,0.2-0.5
	c0.1-0.3,0.2-0.5,0.2-0.6c1.7-0.1,3.5-0.1,5.4,0c0.1,0.2,0.2,0.5,0.4,1c0.2,0.6,0.3,1,0.3,1.1c0,0.4-0.2,0.7-0.7,0.7
	c-0.6,0-1,0-1.2,0c0,0,0,0,0,0l0,0c0,0,0,0-0.1,0c0,0,0,0,0,0l0,0c-0.1,0-0.2,0-0.3,0c0,0.1,0,0.2,0,0.3l0,0l0,0c0,0,0,0,0,0.1
	l-0.1,0c0,0,0,0,0.1,0c0,0.3,0,0.6,0,0.9c0,0,0,0,0,0l0,0c0,0,0,0.1,0,0.1c0,0,0,0,0,0l0,0c0,0.1,0,0.1,0,0.2c0,0,0.1,0,0.2,0l0,0
	c0,0,0,0,0,0c0,0,0.1,0,0.1,0l0,0c0,0,0,0,0,0c0.6,0,1.5,0,2.8,0c1.6,0,2.6,0,3.1,0C123.6,38.8,123.6,38.4,123.7,38
	C123.7,38,123.7,38,123.7,38z M116.1,28.3c0,0.3,0,0.6-0.3,0.9c0.2-0.1,0.3-0.2,0.4-0.3c0.3-0.4,0.3-0.9,0.3-1.4l0.1,0
	c0,0,0,0.1,0.1,0.1c0.1,0.2,0.2,0.5,0.2,0.7c0,0.4,0,0.8,0,1.2c0,0.1,0,0.2,0,0.4c0,0,0.1,0.1,0.1,0.1c0,0.1,0.1,0.2,0.1,0.2
	c0.1,0.1,0.2,0.3,0.2,0.4c0,0.2,0.1,0.5,0.3,0.6c0.1,0.1,0.2,0.2,0.3,0.4c0,0.1,0,0.1,0,0.2c0,0,0.1,0.3,0.1,0.5c0,0,0,0.1,0,0.1
	c-0.2,0-0.3,0-0.5,0.1c-0.4,0.3-0.7,0.6-1.1,0.7h-2.2c0.1-0.4,0.5-1.2,1-2.7c0.2-0.6,0.4-1.1,0.5-1.5c0,0,0,0,0.1-0.1c0,0,0,0,0,0
	C115.9,28.8,116,28.5,116.1,28.3z M113.9,27.8c0,0-0.1,0-0.1-0.1C113.8,27.7,113.9,27.8,113.9,27.8z M114,27.9
	C114,27.9,114,27.9,114,27.9C114,27.9,114,27.9,114,27.9C114,27.9,114,27.9,114,27.9z M119.7,30.9c0-0.1-0.1-0.1-0.1-0.2
	c0-0.1-0.1-0.2-0.1-0.3C119.6,30.5,119.7,30.7,119.7,30.9z M113.7,39.1C113.7,39.1,113.7,39.1,113.7,39.1c0.2,0,0.3,0,0.5,0
	C114,39.1,113.8,39.1,113.7,39.1z M101.9,35.9C101.9,35.9,101.9,35.9,101.9,35.9L101.9,35.9c0-0.1,0-0.2,0-0.3c0,0,0,0,0,0l0,0
	c0,0,0-0.1,0-0.1c-0.4,0-0.8,0-1.3,0c0,0,0,0,0,0l0,0c0,0,0,0-0.1,0c0,0,0,0,0,0l0,0c0,0,0,0,0,0c0,0,0,0,0,0l0,0c0,0,0,0,0,0
	c0,0,0,0,0,0.1l0,0c0,0,0,0,0,0c0,0.1,0,0.3,0,0.4c0,0,0,0.1,0,0.1c0,0,0,0-0.1,0.1c-0.2,0.3-0.3,0.8-0.6,1
	c-0.4,0.2-0.8-0.1-1.1-0.4c-0.1-0.1-0.1-0.1-0.2-0.1c-0.2-0.3-0.3-0.6-0.5-1c-0.3-0.8-0.9-1.7-1.8-2.2c0.6-0.1,1.2-0.2,1.7-0.5
	c0.6-0.2,1.1-0.5,1.4-0.8c0.6-0.5,0.9-1.1,1-1.8c0.1-0.2,0.1-0.5,0.1-0.8c0-0.5,0-1-0.2-1.6c-0.3-1.1-1.3-1.9-2.4-2.2
	c-1.1-0.3-2.2-0.4-3.1-0.3c-0.1,0-0.1,0-0.2,0c-0.9,0-1.7,0.1-2.6,0.1c-1-0.1-2.1-0.1-3.2,0c-0.5,0.1-1,0.1-1.5,0.1l-0.2,0l0,0.2
	c0,0.3,0,0.7,0,1c-0.5,0.2-0.2,1.1,0.4,0.9c0.5-0.1,1,0,1.5,0.1c0.1,0,0.2,0.1,0.3,0.1c0,0,0,0.1,0.1,0.2c0,0,0,0,0,0
	c0,0.3,0,0.5,0,0.8c0,0,0,0.1,0,0.1c0,0,0,0,0,0.1c0,1.2-0.1,2.4-0.1,3.6c0,1-0.1,2-0.2,3L89,36.6c-0.1,0-0.2,0-0.3,0
	c-0.2,0-0.5,0-0.7,0.1l-0.3,0.1l-0.8,0.1l0.1,0.5c0.1,0.6,0.2,1.1,0.3,1.7l0.1,0.4l0.3,0c1-0.2,2-0.3,3-0.4c0.2,0,0.5,0,0.7,0
	c1.5,0,2.6,0,3.3,0c0,0,0,0,0,0l0,0c0.1,0,0.3,0,0.4,0c0,0,0,0,0,0l0,0c0,0,0,0,0.1,0c0,0,0,0,0-0.1l0,0c0,0,0,0,0,0
	c0-0.1,0-0.2,0-0.4l0,0c0,0,0,0-0.1,0c0-0.2,0-0.5,0-0.6l0.1,0L95.2,38c0-0.2,0-0.3,0-0.5c0,0,0,0,0,0l0,0c0,0,0-0.1,0-0.1
	c0,0-0.1,0-0.1,0l0,0c0,0,0,0,0,0c-0.1,0-0.3,0-0.5,0l-0.1-0.1c0,0,0,0.1,0,0.1c-0.4,0-1,0-1.7,0c-0.3,0-0.6-0.1-0.7-0.2
	c-0.1-0.1-0.2-0.4-0.2-0.8c0-1,0-2.1,0-3.1c0.1,0,0.3,0,0.4,0c0.2,0,0.3,0,0.6,0c0.2,0,0.4,0,0.5,0c0.8,0.1,1.3,0.2,1.6,0.5
	c0.3,0.3,0.6,1,0.9,2c0.5,1.3,0.9,2.2,1.3,2.7c0.4,0.5,1.1,0.7,2.1,0.7c0.9,0,1.6-0.3,2.1-1C101.8,37.8,102,37,101.9,35.9z M94.1,32
	c-0.1-0.1-0.2-0.1-0.3-0.1c-0.4,0-0.7-0.4-1-0.5c-0.3-0.1-0.6,0-0.8,0.2c-0.1-0.2-0.1-0.4-0.2-0.7c0-0.3,0-0.6,0-0.8
	c0.2-0.7,0.5-1.4,0.5-2c0,0,0.1,0,0.1-0.1c0,0,0,0,0,0c0.2,0,0.3,0,0.5-0.1c0.6,0,1.2,0.1,1.9,0.1c0.3,0.1,0.6,0.2,0.8,0.2
	c0.5,0,0.9,0.5,1.3,0.2c0.4-0.2,0.9-0.3,1.3,0c0.3,0.3,0.4,0.7,0.4,1.3c0,0.8-0.2,1.4-0.7,1.7c-0.5,0.4-1.3,0.6-2.6,0.6
	C94.9,32,94.5,32,94.1,32z M89.6,37.2C89.6,37.2,89.6,37.2,89.6,37.2C89.6,37.3,89.6,37.3,89.6,37.2C89.6,37.3,89.6,37.3,89.6,37.2z
	 M98.2,36.6C98.2,36.6,98.2,36.6,98.2,36.6c-0.2-0.2-0.3-0.4-0.4-0.7C98,36.1,98.1,36.3,98.2,36.6z M87.4,26L87.4,26
	c0.2,0,0.4,0,0.6,0C87.7,26,87.5,26,87.4,26c0.1,0.4,0.1,0.7,0.1,1c0,0-0.1,0-0.1,0C87.4,26.7,87.4,26.3,87.4,26L87.4,26z
	 M79.8,27.9l0.3,0l0-0.2c-0.1-0.5-0.1-1.1-0.2-1.7l0,0l0,0c-0.1,0-0.1,0-0.2,0l0,0l0,0c-0.3,0-0.5,0-0.8,0c-0.5,0-1.2,0-2,0
	c-1.1,0-1.9,0-2.5,0c0,0,0,0,0-0.1L74.2,26c-0.2,0-0.3,0-0.4,0c0,0,0,0,0,0l0,0c0,0-0.1,0-0.1,0c0,0,0,0.1,0,0.1l0,0c0,0,0,0,0,0
	c0,0.1,0,0.3,0,0.4l-0.1,0.1c0,0,0,0,0.1,0c0,0.1,0,0.3,0,0.4c0,0,0,0-0.1,0l0.1,0.1c0,0.2,0,0.4,0,0.5c0,0,0,0,0,0l0,0
	c0,0,0,0.1,0,0.1c0,0,0.1,0,0.1,0l0,0c0,0,0,0,0,0c0.1,0,0.3,0,0.5,0l0.1,0.1c0,0,0-0.1,0-0.1c0.1,0,0.3,0,0.4,0
	c0.4,0,0.7,0.1,0.8,0.2c0.2,0.1,0.2,0.4,0.3,0.8c0.1,2.8,0.1,4.9,0,6.5c-0.1,0.9-0.3,1.5-0.8,2c-0.4,0.4-1.2,0.6-2.3,0.6
	c-1.1,0-1.8-0.2-2.3-0.7c-0.5-0.4-0.7-1.1-0.8-2c0-0.6,0-1.6,0-3c0-0.7,0-1.3,0-1.9c0-0.1,0-0.2,0-0.2c0-0.1,0-0.2,0-0.2
	c0.2-0.1,0.3-0.2,0.4-0.4c0-0.4-0.2-0.9,0.2-1.2c0.1-0.1,0.2-0.1,0.3-0.1c0.4-0.1,1,0,1.5,0l0.4,0l0-0.4c0-0.5,0-1.1-0.1-1.6l0-0.3
	l-0.3,0c-1,0.1-2,0.2-3,0.3c-0.4,0-0.9,0-1.3,0.1c-0.5,0-1,0-1.3,0c0,0,0,0,0-0.1l0,0c-0.1,0-0.2,0-0.3,0c0,0,0,0,0,0l0,0
	c0,0,0,0-0.1,0c0,0,0,0,0,0.1l0,0c0,0,0,0,0,0c0,0.1,0,0.2,0,0.3l0,0c0,0,0,0,0,0c0,0.3,0,0.5,0,0.8l0,0l0,0c0,0.1,0,0.3,0,0.4
	c0,0,0,0,0,0c0,0,0,0,0,0l0,0c0.1,0,0.3,0,0.4,0l0,0c0,0,0,0,0,0c0.3,0,0.6,0,0.9,0.1c0.4,0.2,0.3,0.7,0.2,1.2
	c-0.1,0.9-0.2,1.9-0.2,2.9c0,0.9-0.1,1.8,0,2.7c0,0.1-0.1,0.2-0.1,0.3c-0.1,1.2,0.3,2.3,1,3.2c0.1,0.1,0.1,0.2,0.2,0.2
	c0.5,0.6,1.3,1.1,2.1,1.2c0.9,0.2,1.7,0.2,2.6,0.2c0.6,0,1.2,0,1.8-0.2c0.1,0.1,0.4,0.2,0.6,0.1c1-0.4,1.5-0.8,1.9-1.4
	c0.2-0.2,0.3-0.4,0.5-0.6c0.5-0.8,0.6-1.9,0.6-2.7c0-2,0.4-4,0.1-5.9c-0.1-0.5-0.2-0.6,0-0.8C78.8,28,79.3,27.9,79.8,27.9z
	 M67.8,34.1c0,0.1,0,0.2,0,0.3c0,0,0,0,0,0C67.8,34.3,67.8,34.2,67.8,34.1z M77.9,30.7C77.9,30.7,77.9,30.7,77.9,30.7
	C77.9,30.8,77.9,30.8,77.9,30.7C77.9,30.7,77.9,30.7,77.9,30.7z M69.8,30c0,0,0-0.1,0-0.1c0,0,0,0,0,0L69.8,30z M72.1,27.7
	L72.1,27.7L72.1,27.7C72,27.7,72,27.7,72.1,27.7C72,27.7,72,27.7,72.1,27.7c-0.1-0.1-0.1-0.1-0.1-0.2c0,0,0-0.1,0-0.1
	c0-0.2,0-0.4,0-0.6C72.1,27.1,72.1,27.4,72.1,27.7L72.1,27.7z M71.7,39.4c0.4,0,0.8,0.1,1.2,0.1c0.7,0,1.3-0.1,1.9-0.2
	c0,0,0,0.1,0.1,0.1C73.8,39.7,72.7,39.6,71.7,39.4z M59,33.2l-0.1-0.9c-0.1-0.7-0.3-1.4-0.5-2.1c-0.5-1.4-1-2.8-1.4-4.3l0,0l0,0
	C56.3,26,55.7,26,55.1,26c-1.1,0-2.5,0-4.3,0c-2.9,0-4.7,0-5.4-0.1c-0.4,2.7-0.7,4.8-1.1,6.2c0,0,0,0,0,0l0,0c0,0,0,0.1,0,0.1
	c0,0,0,0,0,0l0,0c0,0.1,0,0.1,0,0.2c0.1,0,0.1,0,0.2,0l0,0l0,0c0,0,0.1,0,0.1,0l0,0c0,0,0,0,0,0c0.2,0,0.4,0.1,0.7,0.1
	c0.2,0,0.4,0.1,0.5,0.1l0,0l0,0c0.2,0,0.3,0,0.4,0c0.2-1.7,0.4-3.1,0.6-4.2c0.1-0.4,0.2-0.6,0.4-0.8c0.2-0.1,0.5-0.2,0.8-0.2
	c0.8,0,1.5,0,2.1,0c0,1.2,0.1,2.8,0,4.5c0,0.4,0,0.7-0.1,1.1c0,0.1,0,0.3,0,0.4c0-0.2,0.1-0.3,0.1-0.5c0,0.1,0,0.2,0,0.3
	c0,0.1-0.1,0.2-0.1,0.3c0,0,0,0,0-0.1c0,0,0,0.1,0,0.1c-0.2,0.6-0.4,1.1-0.4,1.7c0,0.1,0,0.1,0,0.2c-0.1,0.1-0.1,0.2-0.1,0.4
	c0.1,0.5-0.2,0.8-0.5,1c-0.1,0-0.1,0-0.2,0c-0.9,0-1.8,0-2.7,0.1l-0.2,0l0,0.2c0,0.6,0.1,1.2,0.1,1.7l0,0.1l0.1,0
	c0.6,0,1.2-0.1,1.8-0.1c0.8,0,1.8,0,3,0c1.7,0.1,3.4,0.3,5.1,0.4l0.4,0l0-0.4c0-0.6,0.1-1.1,0.1-1.7l0-0.5l-0.5,0
	c-0.9,0-1.8,0-2.7,0.1c-0.1,0-0.3,0-0.4,0c0,0-0.1,0-0.1-0.1c-0.1,0-0.1-0.1-0.2-0.1c-0.1-0.3-0.2-0.7-0.2-1.1c0-0.1,0-0.2-0.1-0.2
	c0-0.3,0-0.5,0-0.8c0-0.7,0-1.4-0.1-2.2c-0.2-1.5-0.1-3-0.1-4.5c0.4,0,0.8-0.1,1.2-0.1l0,0c0.1,0,0.2,0,0.3,0c0.1,0,0.2,0,0.3,0
	c0.3,0.1,0.6,0.3,0.8,0.6c0,0.2,0,0.4,0.1,0.6c0,0.5,0.1,1,0.2,1.5c0.1,0.7,0.1,1.4,0.2,2.1l0.1,0.7l0.8-0.1c0.3,0,0.6-0.1,0.9-0.1
	c0.3,0,0.6,0,0.9-0.1c0,0,0,0,0.1,0L59,33.2z M52.1,35c0-0.1,0-0.3,0-0.4C52.1,34.8,52.1,34.9,52.1,35C52.1,35.1,52.1,35,52.1,35z
	 M52,32.6c0-1.6,0-3.1,0-4.5c0,0,0.1,0,0.1,0C52.3,29.6,52.1,31.1,52,32.6z M36.6,38L36.6,38c-0.1-0.2-0.1-0.3-0.1-0.4c0,0,0,0,0,0
	l0,0c0,0,0,0,0-0.1c0,0,0,0-0.1,0l0,0c0,0,0,0,0,0c-0.1,0-0.2,0-0.4,0l0,0c0,0,0,0,0,0c0,0,0,0,0,0c-0.3,0-0.6-0.1-0.8-0.2
	c-0.2-0.1-0.3-0.4-0.5-0.7c-0.3-0.8-0.6-1.6-0.9-2.3c0-0.1-0.1-0.2-0.1-0.3c0,0.1,0,0.1,0,0.2c-0.5-1.4-1-2.6-1.4-3.7
	c0.6,1.1,1.1,2.3,1.4,3.5c-0.1-0.5-0.2-1-0.3-1.5c-0.6-2.1-1.8-4.2-2.6-6.3c0,0,0-0.1,0-0.1c-0.6,0.1-1.6,0.1-3,0.1
	c-1-0.1-2.1-0.2-3.2-0.4l-0.3,0l0,0.3c-0.1,0.6-0.1,1.1-0.1,1.7l0,0.4l0.5,0c0.4,0,0.8,0,1.3,0l0.3,0c0.1,0,0.2,0,0.2,0
	c0.1,0,0.1,0,0.1,0c0.1,0.1-0.1,0.6-0.2,1c0,0,0,0,0,0c-0.3,1-0.8,1.9-1.2,2.8c-0.4,1-1.6,5.3-3,5c-0.1,0-0.2,0-0.3,0l-0.3,0l0,0.4
	c0,0,0,0,0,0.1c0,0.1,0,0.1,0,0.2c0,0.3,0,0.6,0,0.8c0,0.2,0,0.5-0.1,0.7l0,0.6l0.7,0c0.3,0,0.7,0,1,0c1.7,0,3.4,0.4,5,0.1l0.9-0.2
	l-0.1-0.6l0,0c-0.1-0.5-0.2-1.1-0.3-1.6l-0.1-0.4l-0.3,0c-0.6,0.1-1.2,0.3-1.8,0.3c-0.2,0-0.4-0.2-0.4-0.4c0-0.1,0-0.2,0-0.2
	c0-0.1,0.1-0.4,0.3-1c0,0,0.1-0.2,0.2-0.5c0.1-0.3,0.2-0.5,0.2-0.6c1.7-0.1,3.5-0.1,5.4,0c0.1,0.2,0.2,0.5,0.4,1
	c0.2,0.6,0.3,1,0.3,1.1c0,0.4-0.2,0.7-0.7,0.7c-0.6,0-1,0-1.2,0c0,0,0,0,0,0l0,0c0,0,0,0-0.1,0c0,0,0,0,0,0l0,0c-0.1,0-0.2,0-0.3,0
	c0,0.1,0,0.2,0,0.3l0,0l0,0c0,0,0,0,0,0.1l-0.1,0.1c0,0,0,0,0.1,0c0,0.3,0,0.6,0,0.9c0,0,0,0,0,0l0,0c0,0,0,0.1,0,0.1c0,0,0,0,0,0
	l0,0c0,0.1,0,0.1,0,0.2c0,0,0.1,0,0.2,0l0,0c0,0,0,0,0,0c0,0,0.1,0,0.1,0l0,0c0,0,0,0,0,0c0.6,0,1.5,0,2.8,0c1.6,0,2.6,0,3.1,0
	C36.6,38.8,36.6,38.4,36.6,38C36.6,38,36.6,38,36.6,38z M29,28.3c0,0.3,0,0.6-0.3,0.9c0.2-0.1,0.3-0.2,0.4-0.3
	c0.3-0.4,0.3-0.9,0.3-1.3l0.1,0c0,0,0,0.1,0.1,0.1c0.1,0.2,0.2,0.5,0.2,0.7c0,0.5-0.1,1.2,0.1,1.7c0,0.1,0,0.3,0.1,0.4
	c0.1,0.1,0.1,0.2,0.3,0.3c0,0.1,0,0.3,0.1,0.4c0,0.1,0,0.2,0,0.2c0,0.3,0.2,0.5,0.3,0.7c0.1,0.1,0.2,0.2,0.2,0.3c0,0,0,0.1,0,0.1
	c-0.2,0-0.3,0-0.5,0.1c-0.4,0.3-0.7,0.6-1.1,0.7h-2.2c0.1-0.4,0.5-1.2,1-2.7c0.2-0.6,0.4-1.1,0.5-1.5c0,0,0,0,0.1-0.1c0,0,0,0,0,0
	C28.8,28.8,28.9,28.5,29,28.3z M30.8,33.4C30.8,33.4,30.8,33.4,30.8,33.4L30.8,33.4C30.8,33.4,30.8,33.4,30.8,33.4z M26.7,39.1
	C26.7,39.1,26.7,39.1,26.7,39.1c0.1,0,0.3,0,0.4,0C26.9,39.1,26.8,39.1,26.7,39.1z M14.5,25.6c-0.9,0-1.9,0.1-2.9,0.2
	c-1,0-1.9,0.1-2.9,0.1l-0.1,0l0,0.1c0,0.4,0,0.9,0.1,1.3c0,0,0,0,0,0l0,0c0,0.1,0,0.2,0,0.4c0,0,0,0,0,0c0,0,0,0,0,0c0,0,0,0,0,0
	c0,0,0.1,0,0.1,0c0.1,0,0.1,0,0.2,0l0,0c0,0,0,0,0,0c0.3,0,0.6,0,1,0c0.4,0,0.6,0.1,0.8,0.2c0.2,0.1,0.3,0.4,0.3,0.8
	c0,0.3,0,0.7,0,1.2C11.1,31,11,32.1,11,33.2c0,0.8,0,1.6,0,2.5c-0.2-0.4-0.5-0.9-0.7-1.3c-0.4-1.3-1-2.5-1.9-3.6
	c-0.1-0.1-0.2-0.2-0.4-0.2c-0.5-1.1-1.1-2.1-1.8-3.2c-0.3-0.5-0.6-1-0.8-1.5l-0.1-0.1l-0.1,0c-0.1-0.1-0.2-0.1-0.3-0.1
	c-1.1,0.1-2.3,0-3.4-0.2c-0.2,0-0.3,0-0.4,0.1c-0.3-0.1-0.6,0-0.9,0.2c-0.5,0.4-0.2,1-0.3,1.5c-0.1,0.3,0.1,0.5,0.3,0.6
	c0.1,0,0.1,0.1,0.2,0.1l0,0.1l0.4,0c0.3,0,0.7,0,0.9,0c0,0,0,0,0.1,0c0,0,0,0,0,0c0.1,0,0.1,0.1,0.1,0.1c0,0.1,0.1,0.3,0,0.6
	C2,29.7,2,30.6,2,31.4c0,1.2-0.1,2.5-0.2,3.7l0,0.9c0,0.2,0,0.5,0,0.7l-0.8,0.1l-0.8,0.1l0.1,0.7l0,0.1c0.1,0.5,0.2,1.1,0.2,1.6
	l0.1,0.5l0.4-0.1c0.9-0.1,1.9-0.3,2.8-0.4c0.7-0.1,1.4-0.1,2.1-0.1c0.2,0,0.3,0,0.5,0c0,0,0,0,0,0l0,0c0.1,0,0.1,0,0.2,0
	c0,0,0,0,0,0l0,0c0,0,0,0,0,0c0,0,0,0,0,0l0,0c0,0,0,0,0,0c0-0.1,0-0.1,0-0.2l0,0l0,0c0-0.3,0-0.7,0-1.1c0,0,0,0,0,0l0,0
	c0-0.1,0-0.2,0-0.2c0,0,0,0,0,0l0,0c0,0,0,0,0,0c0,0,0,0,0,0l0,0c0,0,0,0,0,0c-0.1,0-0.1,0-0.2,0l0,0c0,0,0,0,0,0
	c-0.2,0-0.5,0-0.9,0c-0.7,0-1-0.3-1-1c0-0.8,0-2.3,0-4.3c0-1.4-0.1-2.8-0.3-4.3l0.2,0c0.5,1,1.2,2.4,2.2,4.2
	c2.3,4.1,3.6,6.5,3.9,7.2c0.7-0.1,1.6-0.1,2.6,0c-0.1-1.1-0.2-2.8-0.2-5.2c0-1.3,0-2.4,0-3.3c0-0.2,0-0.5,0-0.7c0-0.2,0-0.3,0-0.5
	l-0.1,0.4c0-0.5,0-0.9,0.1-1.3c0-0.4,0.1-0.6,0.3-0.7c0.2-0.1,0.4-0.2,0.8-0.2c0.2,0,0.4,0,0.5,0c0-0.6,0-1.2,0-1.7
	c-0.2,0-0.6,0-1.1,0c0.4,0,0.8-0.1,1.1-0.1l0.1,0l0,0.1c0,0.6,0,1.1,0,1.7l0,0.1l-0.1,0c-0.3,0-0.6,0-0.8,0c-0.3,0-0.5,0.1-0.6,0.4
	C13,28.6,13,29,13,29.5l0.1-0.6c0-0.3,0.1-0.6,0.2-0.7c0.1-0.1,0.3-0.1,0.5-0.2c0.2,0,0.5,0,0.7,0l0.4,0l0-0.4c0-0.5,0-1.1,0-1.7
	v-0.4L14.5,25.6z M5.4,26.3C5.5,26.4,5.5,26.4,5.4,26.3C5.5,26.4,5.4,26.4,5.4,26.3C5.4,26.3,5.4,26.3,5.4,26.3z M7.7,30.7
	c-0.1-0.2-0.3-0.5-0.4-0.7C7.5,30.2,7.6,30.5,7.7,30.7C7.8,30.7,7.7,30.7,7.7,30.7z M101,1.8c0-0.1,0-0.1,0-0.2
	c0-0.4-0.1-0.8-0.3-1.1c0,0,0,0-0.1-0.1l0-0.1l-0.2,0c-0.1,0-0.2-0.1-0.3,0c-1.1-0.1-2.2-0.1-3.3-0.1c-2.2,0-4.5-0.4-6.7,0
	c-0.7,0.1-1.4,0.2-2.1,0.3l-0.4,0.1l0,0.3c0.1,0.5,0.2,1.1,0.2,1.7l0,0.2l0.1,0c0.5-0.1,1-0.1,1.6-0.2c0,0,0.1,0,0.1,0
	c0.4,0,0.7,0.1,0.8,0.2c0.2,0.1,0.2,0.4,0.3,0.8c0,0.6,0,1.2,0,1.8c0,0.8,0,1.6,0,2.4c0,1.4-0.1,2.6-0.1,3.7c0,0.3-0.1,0.6-0.3,0.7
	c-0.2,0.1-0.4,0.2-0.9,0.2c-0.3,0-0.6,0-0.8,0c0,0,0,0,0-0.1l-0.1,0.1c-0.2,0-0.3,0-0.5,0c0,0,0,0,0,0l0,0c-0.1,0-0.2,0-0.2,0
	c0,0.1,0,0.1,0,0.2l0,0l0,0c0,0.2,0,0.3,0,0.5l0,0l0,0c0,0.1,0,0.2,0,0.4c0,0,0,0,0,0l0,0c0,0.2,0,0.4,0,0.6c0.1,0,0.2,0,0.3,0l0,0
	c0,0,0,0,0,0c0.1,0,0.2,0,0.3,0l0,0c0,0,0,0,0,0c1.5,0,2.7,0,3.8,0c3.9,0,6.6,0,8.1,0c0-0.4,0.1-1.7,0.3-3.8c0,0,0,0,0,0l0,0
	c0-0.2,0-0.3,0-0.5c0,0,0,0,0,0l0,0c0,0,0,0,0-0.1c0,0,0,0-0.1,0l0,0c0,0,0,0,0,0c-0.2,0-0.3,0-0.5,0l0,0c0,0,0,0,0,0
	c-0.3,0-0.6,0-0.9-0.1c0,0,0,0,0,0l0,0c-0.1,0-0.2,0-0.3,0c0,0,0,0,0,0l0,0c0,0-0.1,0-0.1,0c0,0,0,0.1,0,0.1l0,0c0,0,0,0,0,0
	c0,0.1,0,0.2,0,0.3l0,0c0,0,0,0,0,0c-0.1,0.9-0.2,1.4-0.2,1.5c0,0.1,0,0.1-0.1,0.2c-0.1,0.2-0.2,0.3-0.3,0.4
	c0.1-0.1,0.2-0.1,0.2-0.2c-0.1,0.1-0.1,0.2-0.2,0.3c0,0-0.1,0-0.1,0c0,0,0,0,0.1-0.1c-0.1,0-0.1,0.1-0.2,0.1c-0.2,0-0.3,0-0.5,0.1
	c-0.3,0-0.7-0.1-1.1-0.1c-0.5,0-1.1-0.1-1.6-0.1c-0.4-0.1-0.8-0.1-1.2-0.1c-0.2,0-0.3,0-0.4,0.1c-0.2,0-0.4,0-0.5,0
	c-0.1-1.3-0.2-2.5-0.2-3.7c0.6,0,1.2-0.1,1.8-0.1c1,0,1.8,0,2.3,0l0,0l0,0c0.1,0,0.3,0,0.4,0c0,0,0,0,0,0l0,0c0,0,0,0,0,0
	c0,0,0,0,0,0l0,0c0,0,0,0,0,0c0-0.1,0-0.2,0-0.3c0,0,0,0,0,0l0,0c0,0,0,0,0,0c0-0.4,0-0.8,0.1-1.2l0-0.1l-0.1,0
	c-1.3-0.1-2.7-0.2-4.1-0.2c0.1-1.1,0.2-2.2,0.2-3.3c1.2,0,2.3-0.1,3.5-0.2c0.3,0,0.5,0,0.8,0C97.8,2.8,98,2.9,98,3
	c0.1,0.1,0.2,0.3,0.2,0.6c0.1,0.4,0.1,0.8,0.2,1.2c-0.3,0.2-0.3,0.8,0.1,0.9c0.6,0.1,1.2,0.1,1.9-0.1c0,0,0,0,0,0
	c0.2,0,0.5-0.1,0.5-0.4c0.1-0.5,0.1-1,0-1.5C101.1,3.1,101.1,2.4,101,1.8z M98.7,4.8C98.7,4.8,98.7,4.8,98.7,4.8l0-0.1
	C98.7,4.7,98.7,4.7,98.7,4.8z M92.8,3C92.8,3,92.9,3,92.8,3c0,0.2,0,0.3,0,0.5C92.8,3.3,92.8,3.1,92.8,3z M93.3,0.8
	C93.3,0.8,93.3,0.8,93.3,0.8c-0.4,0-0.8,0-1.1,0c0,0-0.1,0-0.1,0C92.5,0.8,92.9,0.8,93.3,0.8z M79.6,7.4C79.6,7.4,79.6,7.4,79.6,7.4
	C79.6,7.4,79.6,7.4,79.6,7.4c-0.1-2.7-0.6-5.4-3.3-6.5c-2.9-1.2-6.8-0.4-9.8-0.5c-0.2,0-0.4,0.2-0.4,0.4c0,0.6,0,1.1,0,1.7
	c0,0.2,0.2,0.4,0.4,0.4c0.9,0,1.7-0.3,2.3,0.6c0.4,0.6,0,3,0,3.7c0,1,0.2,2.4-0.1,3.3c-0.5,1.6-1,1.3-2.2,1.3
	c-0.2,0-0.4,0.2-0.4,0.4c0,0.6,0,1.1,0,1.7c0,0.2,0.2,0.4,0.4,0.4c3-0.1,7,0.7,9.9-0.4C78.9,12.8,79.5,10,79.6,7.4
	C79.6,7.4,79.6,7.4,79.6,7.4C79.6,7.4,79.6,7.4,79.6,7.4z M73.5,11.9C73.5,11.9,73.5,11.9,73.5,11.9c-0.3,0-2.1,0.2-2.4,0
	c-0.1-0.1,0.1-2.7,0.1-2.9c0-1.1,0-2.2,0-3.4c0-0.6,0.1-1.3,0.1-1.9c-0.1-0.7-0.2-0.6,0.2-0.8c0.5-0.2,1.7,0,2.3,0
	c1.4,0.2,2.4,0.8,2.7,2.2C77.3,7.8,76.9,11.7,73.5,11.9z M58.4,10.7C58.4,10.7,58.4,10.7,58.4,10.7L58.4,10.7c0-0.1,0-0.2,0-0.3
	c0,0,0,0,0,0l0,0c0,0,0-0.1,0-0.1c-0.4,0-0.8,0-1.3,0c0,0,0,0,0,0l0,0c0,0,0,0-0.1,0c0,0,0,0,0,0l0,0c0,0,0,0,0,0c0,0,0,0,0,0l0,0
	c0,0,0,0,0,0c0,0,0,0,0,0.1l0,0c0,0,0,0,0,0c0,0.1,0,0.3,0,0.4c0,0,0,0,0,0c-0.1,0-0.2,0.1-0.3,0.2c-0.1,0.3-0.2,1-0.5,1.1
	c-0.4,0.1-1-0.7-1.2-1c0,0,0,0,0,0c-0.1-0.3-0.2-0.5-0.4-0.8c-0.3-0.8-0.9-1.7-1.8-2.2c0.6-0.1,1.2-0.2,1.7-0.5
	C55,7.6,55.5,7.3,55.9,7c0.6-0.5,0.9-1.1,1-1.8C57,4.9,57,4.6,57,4.4c0-0.5,0-1-0.2-1.6c-0.3-1.1-1.3-1.9-2.4-2.2
	c-1.1-0.3-2.2-0.4-3.1-0.3c-0.2,0-0.4,0-0.7,0.1c-1.1,0-2.1-0.1-3.2,0c-0.1,0-0.2,0-0.3,0.1c-0.6,0-1.2,0-1.9,0.1
	c-0.5,0.1-1,0.1-1.5,0.1l-0.2,0l0,0.2c0,0.5,0,1.1,0,1.6l0,0.2l0.2,0l0.1,0c0.1,0.1,0.2,0.1,0.3,0.1c0.5,0,1.1,0.2,1.5,0.5
	C46,5.2,45.7,7.1,45.7,9c0,0.6-0.1,1.1-0.2,1.7l-0.1,0.7c-0.1,0-0.2,0-0.3,0c-0.2,0-0.5,0-0.7,0.1l-0.3,0.1l-0.8,0.1l0.1,0.5
	c0.1,0.6,0.2,1.1,0.3,1.7l0.1,0.4l0.3,0c1-0.2,2-0.3,3-0.4c0.2,0,0.5,0,0.7,0c1.5,0,2.6,0,3.3,0c0,0,0,0,0,0l0,0c0.1,0,0.3,0,0.4,0
	c0,0,0,0,0,0l0,0c0,0,0,0,0.1,0c0,0,0,0,0-0.1l0,0c0,0,0,0,0,0c0-0.1,0-0.2,0-0.4l0.1,0c0,0,0,0-0.1,0c0-0.2,0-0.5,0-0.6l0.1,0
	l-0.1-0.1c0-0.2,0-0.3,0-0.5c0,0,0,0,0,0l0,0c0,0,0-0.1,0-0.1c0,0-0.1,0-0.1,0l0,0c0,0,0,0,0,0c-0.1,0-0.3,0-0.5,0L51,12.2
	c0,0,0,0.1,0,0.1c-0.4,0-1,0-1.7,0c-0.3,0-0.6-0.1-0.7-0.2c-0.1-0.1-0.2-0.4-0.2-0.8c0-1,0-2.1,0-3.1c0.1,0,0.3,0,0.4,0
	c0.2,0,0.3,0,0.6,0c0.2,0,0.4,0,0.5,0c0.8,0.1,1.3,0.2,1.6,0.5c0.3,0.3,0.6,1,0.9,2c0.5,1.3,0.9,2.2,1.3,2.7
	c0.4,0.5,1.1,0.7,2.1,0.7c0.9,0,1.6-0.3,2.1-1C58.3,12.7,58.4,11.8,58.4,10.7z M54.5,11c0-0.1-0.1-0.2-0.1-0.3
	C54.4,10.8,54.4,10.9,54.5,11C54.5,11,54.5,11,54.5,11z M48.3,2.7C48.3,2.7,48.3,2.7,48.3,2.7C48.3,2.7,48.3,2.7,48.3,2.7L48.3,2.7
	C48.3,2.8,48.3,2.8,48.3,2.7c0,0.1,0,0.1,0,0.2C48.3,2.8,48.3,2.7,48.3,2.7z M49.9,6.8C49.8,6.7,49.8,6.7,49.9,6.8
	C49.8,6.7,49.8,6.7,49.9,6.8c0-0.1-0.1-0.1-0.1-0.1c-0.1-0.1-0.3-0.2-0.5-0.3c-0.3-0.1-0.6,0-0.9,0c-0.1-0.2-0.1-0.4-0.1-0.6
	c0-0.3,0-0.6,0-0.8c0.2-0.7,0.6-1.4,0.5-2.2c-0.1,0-0.1,0-0.2,0c0.1,0,0.1,0,0.2,0c0,0,0,0,0,0c0.2,0.1,0.5,0.1,0.7-0.1
	c0,0,0,0,0.1,0c0.5,0,1,0,1.5,0.1c0.3,0.1,0.7,0.2,1,0.2c0.5,0,0.9,0.5,1.3,0.2c0.4-0.2,0.9-0.3,1.3,0c0.3,0.3,0.4,0.8,0.4,1.3
	c0,0.8-0.2,1.4-0.7,1.7c-0.5,0.4-1.3,0.6-2.6,0.6c-0.5,0-1.1,0-1.8,0C50,6.8,50,6.8,49.9,6.8C49.9,6.7,49.9,6.7,49.9,6.8
	C49.9,6.7,49.9,6.8,49.9,6.8C49.9,6.8,49.9,6.8,49.9,6.8z M46.1,12C46.1,12,46.1,12.1,46.1,12C46.1,12.1,46,12.1,46.1,12
	C46,12.1,46.1,12.1,46.1,12z M46.3,11.7c0,0.1,0,0.1-0.1,0.1C46.2,11.8,46.2,11.8,46.3,11.7z M43.9,2.6l-0.1,0l0-0.1
	c0-0.6,0.1-1.1,0.1-1.7l0,0l0,0c0.2,0,0.4,0,0.6,0c-0.3,0-0.5,0-0.6,0c0,0.4,0,0.8,0,1.2C43.8,2.2,43.8,2.4,43.9,2.6
	C43.9,2.6,43.9,2.6,43.9,2.6z M35.5,9.6L35.5,9.6C35.5,9.6,35.5,9.6,35.5,9.6c-0.2,0-0.3,0-0.5,0l0,0c0,0,0,0,0,0
	c-0.3,0-0.6,0-0.9-0.1c0,0,0,0,0,0l0,0c-0.1,0-0.2,0-0.3,0c0,0,0,0,0,0l0,0c0,0-0.1,0-0.1,0c0,0,0,0.1,0,0.1l0,0c0,0,0,0,0,0
	c0,0.1,0,0.2,0,0.3l0,0c0,0,0,0,0,0c-0.1,0.9-0.2,1.4-0.2,1.5c0,0.1,0,0.1-0.1,0.2c-0.1,0.2-0.2,0.3-0.3,0.4
	c0.1-0.1,0.2-0.1,0.2-0.2c-0.1,0.1-0.1,0.2-0.2,0.3c0,0-0.1,0-0.1,0c0,0,0,0,0.1,0c0,0,0,0-0.1,0c-1.2,0-2.3,0-3.5-0.2
	c-0.1,0-0.2,0-0.3,0.1c-0.5,0-1,0-1.6,0c-0.1-1.3-0.2-2.5-0.2-3.7c0.6,0,1.2-0.1,1.8-0.1c1,0,1.8,0,2.3,0l0,0l0,0c0.1,0,0.3,0,0.4,0
	c0,0,0,0,0,0l0,0c0,0,0,0,0,0c0,0,0,0,0,0l0,0c0,0,0,0,0,0c0-0.1,0-0.2,0-0.3c0,0,0,0,0,0l0,0c0,0,0,0,0,0c0-0.4,0-0.8,0.1-1.2
	l0-0.1l-0.1,0c-1.3-0.1-2.7-0.2-4.1-0.2C27.9,5.1,28,4,28,2.9c0.2,0,0.3,0,0.5,0c0.2,0,0.4,0,0.6,0c0.6,0,1.2,0,1.8,0
	c0,0,0.1,0,0.1,0c0.4,0,0.8,0,1.2,0c0.2,0,0.4,0.1,0.5,0.2c0.1,0.1,0.2,0.3,0.2,0.6C33,3.7,33,3.9,33,4C33,4.1,33,4.2,33,4.3
	c0,0.3-0.1,0.7,0,1.1c0,0.2,0.2,0.3,0.4,0.4c0.5,0.2,1.2,0,1.8,0c0.1,0,0.3-0.1,0.3-0.2l0.1,0l0-0.1c0.1-0.2,0.1-0.4,0-0.5
	c0-0.5,0.1-0.9,0.1-1.4c0-0.4-0.2-0.9-0.1-1.3c0-0.1,0-0.1,0-0.2c0,0,0-0.1,0-0.1c0.1-0.3,0.2-0.6,0.1-1c0,0,0-0.1-0.1-0.1
	c0,0,0-0.1,0-0.1l0-0.4l-0.5,0c-1.1-0.1-2.3-0.1-3.4-0.1c-2.2,0-4.5-0.4-6.7,0c-0.7,0.1-1.4,0.2-2.1,0.3l-0.4,0.1l0,0.3
	c0.1,0.5,0.2,1.1,0.2,1.7l0,0.2l0.1,0c0.5-0.1,1-0.1,1.6-0.2c0,0,0.1,0,0.1,0c0.4,0,0.7,0.1,0.8,0.2c0.2,0.1,0.2,0.4,0.3,0.8
	c0,0.6,0,1.2,0,1.8c0,0.8,0,1.6,0,2.4c0,1.4-0.1,2.6-0.1,3.7c0,0.3-0.1,0.6-0.3,0.7c-0.2,0.1-0.4,0.2-0.9,0.2c-0.3,0-0.6,0-0.8,0
	c0,0,0,0,0-0.1l-0.1,0.1c-0.2,0-0.3,0-0.5,0c0,0,0,0,0,0l0,0c-0.1,0-0.2,0-0.2,0c0,0.1,0,0.1,0,0.2l0,0l0,0c0,0.2,0,0.3,0,0.5l0,0
	l0,0c0,0.1,0,0.2,0,0.4c0,0,0,0,0,0l0,0c0,0.2,0,0.4,0,0.6c0.1,0,0.2,0,0.3,0l0,0c0,0,0,0,0,0c0.1,0,0.2,0,0.3,0l0,0c0,0,0,0,0,0
	c1.5,0,2.7,0,3.8,0c3.9,0,6.6,0,8.1,0c0-0.4,0.1-1.7,0.3-3.8c0,0,0,0,0,0l0,0C35.5,10,35.5,9.8,35.5,9.6C35.5,9.7,35.5,9.7,35.5,9.6
	L35.5,9.6C35.5,9.7,35.5,9.6,35.5,9.6C35.5,9.6,35.5,9.6,35.5,9.6z M29.1,12.3c-0.2,0-0.4,0-0.6,0C28.6,12.3,28.9,12.3,29.1,12.3
	C29.1,12.3,29.1,12.3,29.1,12.3z M31.4,2.4c0,0,0.1,0,0.1,0C31.5,2.4,31.4,2.4,31.4,2.4C31.4,2.4,31.4,2.4,31.4,2.4z M27.5,3.5
	c0-0.2,0-0.4,0-0.6c0,0,0,0,0,0l0,0c0,0,0,0,0,0C27.5,3.1,27.5,3.3,27.5,3.5z M14.9,2.5c0-0.6-0.1-1.1-0.1-1.7l0-0.1l-0.1,0
	c-0.4,0-0.8,0.1-1.1,0.1c-0.5,0-1.1,0-1.9,0c-0.3,0-0.6,0-0.9,0c-0.7-0.1-1.4-0.1-2.1-0.2l-0.1,0l0,0.2c0,0.5-0.1,1.1-0.2,1.7l0,0.3
	l0.3,0l0.9,0.1c0.3,0,0.6,0,0.7,0.1c0.1,0.1,0.1,0.1,0.1,0.3c-0.1,0.2-0.1,0.5-0.2,0.7C9.9,4.6,9.8,5.2,9.6,5.7
	C9.5,5.8,9.5,5.9,9.4,6C9.3,6.2,9.3,6.4,9.3,6.5C9.2,6.9,9,7.2,8.9,7.6c0,0.1,0,0.2,0,0.2c-0.3,0.6-0.5,1.3-0.6,2
	c-0.1,0.6-0.3,1.2-0.5,1.7c-0.3-0.7-0.6-1.5-0.8-2.2C6.7,8.9,6.6,8.5,6.5,8c0,0,0-0.1,0-0.1c0-0.2,0-0.4-0.1-0.7
	C6.2,6.6,6,6,5.9,5.4C5.7,4.8,5.4,4.2,5.5,3.7c0-0.1,0-0.3,0-0.4l0,0c0.2,0,0.4-0.1,0.7-0.1c0.2,0,0.3-0.1,0.5-0.1l0.7-0.1L7.2,2.5
	C7.1,1.9,7,1.4,6.9,0.8L6.8,0.5l-0.2,0C5.8,0.7,5,0.8,4.1,0.8c-0.2,0-0.4,0-0.7,0c-1.2,0-2.1,0-2.6,0c0,0,0,0,0-0.1l0,0.1
	c-0.1,0-0.2,0-0.3,0c0,0,0,0,0,0l0,0c0,0,0,0-0.1,0c0,0,0,0,0,0.1l0,0c0,0,0,0,0,0c0,0.1,0,0.2,0,0.3l0,0c0,0,0,0,0,0
	c0,0.2,0,0.4,0,0.6c0,0,0,0,0,0l0,0c0,0.2,0,0.3,0,0.5c0,0,0,0,0,0l0,0c0,0,0,0.1,0,0.1h0.1l0,0c0,0,0,0,0,0h0.4c0,0,0.1,0,0.1,0
	l0,0c0,0,0,0,0,0c0.3,0,0.5,0.1,0.7,0.2C1.8,2.8,2,3.1,2.1,3.4c0.1,0.2,0.2,0.5,0.3,0.7C2.5,5.4,3.1,6.8,3.5,8
	c0.1,0.5,0.4,0.7,0.7,0.9C5,10.9,5.5,12.6,6,14c0.3,0,0.8,0,1.5,0s1.2,0,1.5,0c0.8-2.3,1.5-4.3,2.1-5.8c0.1-0.2,0.1-0.3,0.2-0.5
	c0-0.1,0.1-0.2,0.1-0.3c-0.1,0.1-0.1,0.2-0.2,0.3c0.9-2.3,1.4-3.7,1.6-4.2c0,0,0,0,0,0c-0.1,0.4-0.2,0.7-0.3,1.1
	c-0.3,1-0.7,2-1.1,2.9c0.3-0.5,0.6-1,0.9-1.5c0.3-0.7,0.6-1.5,0.9-2.2c0.1-0.4,0.3-0.7,0.5-0.8c0.3-0.2,0.7-0.2,1-0.2l0.2,0
	L14.9,2.5z M8.3,10.5c-0.2,0.4-0.3,0.9-0.5,1.3c0,0,0-0.1-0.1-0.1C7.9,11.3,8.1,10.9,8.3,10.5z"/>
</svg>
