<?xml version="1.0" encoding="utf-8"?>
<!-- Generator: Adobe Illustrator 24.0.3, SVG Export Plug-In . SVG Version: 6.00 Build 0)  -->
<svg version="1.1" id="eberhard-design-logo" xmlns="http://www.w3.org/2000/svg" xmlns:xlink="http://www.w3.org/1999/xlink"
	 x="0px" y="0px" viewBox="0 0 680 500" style="enable-background:new 0 0 680 500;" xml:space="preserve">
<path id="logo" d="M62.2,274c6.5,0,12.8,1.2,18.6,3.8c5.8,2.5,10.8,5.9,15.1,10.2c4.3,4.3,7.7,9.2,10.2,15
	c2.6,5.8,3.8,11.9,3.8,18.5v131.1c0,6.5-1.2,12.7-3.8,18.5c-2.6,5.8-5.9,10.8-10.2,15c-4.3,4.3-9.3,7.6-15.1,10.2s-12,3.8-18.6,3.8
	H5.3c-3.6,0-5.3-1.7-5.3-5.3V279.3c0-3.6,1.7-5.3,5.3-5.3H62.2z M65.7,323.4c0-2.5-0.9-4.7-2.7-6.4c-1.7-1.7-3.9-2.6-6.4-2.6H44.4
	v145.4h12.2c2.6,0,4.7-0.9,6.4-2.6c1.7-1.7,2.7-3.9,2.7-6.4V323.4z M222.4,461.2v33.5c0,3.6-1.7,5.3-5.3,5.3h-81.5
	c-3.5,0-5.3-1.7-5.3-5.3V279.3c0-3.6,1.7-5.3,5.3-5.3h81.5c3.5,0,5.3,1.7,5.3,5.3v33.5c0,3.6-1.7,5.3-5.3,5.3h-42.9v43h37.2
	c3.5,0,5.3,1.7,5.3,5.3v33.5c0,3.6-1.7,5.3-5.3,5.3h-37.2V456h42.9C220.7,455.9,222.4,457.6,222.4,461.2z M320.6,277.7
	c5.6,2.5,10.4,5.8,14.6,9.9c4.1,4.2,7.4,9,9.9,14.7c2.5,5.7,3.6,11.6,3.6,18.1v14c0,3.5-1.6,5.7-4.7,6.7l-33.2,8.8
	c-3.2,1-4.7-0.2-4.7-3.7v-23.9c0-2.5-0.9-4.6-2.6-6.3c-1.7-1.7-3.7-2.6-6.2-2.6h-3c-2.5,0-4.5,0.9-6.2,2.6c-1.7,1.7-2.6,3.8-2.6,6.3
	v22.4c0.2,2.7,0.7,5.1,1.5,7c0.7,2,2.1,4,4,5.9l47.9,36c3.9,3.5,6.4,7,7.5,10.5c1.1,3.6,1.9,7.5,2.4,12v37.5
	c0,6.4-1.2,12.4-3.6,18.1s-5.7,10.5-9.9,14.7s-9,7.4-14.6,9.9c-5.6,2.5-11.5,3.7-17.9,3.7h-13.9c-6.3,0-12.3-1.2-17.9-3.7
	c-5.6-2.5-10.4-5.8-14.6-9.9c-4.1-4.2-7.4-9-9.9-14.7c-2.5-5.7-3.6-11.6-3.6-18.1v-20.6c0-3.5,1.6-5.7,4.7-6.7l33.2-8.8
	c3.2-1,4.7,0.2,4.7,3.7v30.6c0,2.5,0.9,4.6,2.6,6.3c1.7,1.7,3.7,2.6,6.2,2.6h3c2.5,0,4.5-0.9,6.2-2.6s2.6-3.8,2.6-6.3V429
	c-0.2-3.2-0.7-6-1.5-8.4c-0.7-2.5-2.2-4.7-4.3-6.7L253,377.5c-3.6-3.5-6.3-6.9-7.9-10.3c-1.6-3.5-2.4-7.9-2.4-13.6v-33.2
	c0-6.4,1.2-12.4,3.6-18.1c2.5-5.7,5.7-10.5,9.9-14.7c4.1-4.2,9-7.4,14.6-9.9c5.6-2.5,11.5-3.7,17.9-3.7h13.9
	C309.1,274,315,275.3,320.6,277.7z M413.2,494.7c0,3.6-1.7,5.3-5.3,5.3h-33.5c-3.5,0-5.3-1.7-5.3-5.3V279.3c0-3.6,1.7-5.3,5.3-5.3
	h33.5c3.5,0,5.3,1.7,5.3,5.3V494.7z M511.4,277.7c5.6,2.5,10.5,5.8,14.6,9.9c4.1,4.2,7.4,9,9.9,14.7c2.5,5.7,3.6,11.6,3.6,18.1v8.1
	c0,3.5-1.6,5.7-4.7,6.6l-33.2,12.1c-3.2,1-4.7-0.2-4.7-3.7v-21.3c0-2.5-0.9-4.6-2.6-6.3c-1.7-1.7-3.7-2.6-6.2-2.6h-3
	c-2.5,0-4.5,0.9-6.2,2.6c-1.7,1.7-2.6,3.8-2.6,6.3v129.5c0,2.5,0.9,4.6,2.6,6.3c1.7,1.7,3.7,2.6,6.2,2.6h3c2.5,0,4.5-0.9,6.2-2.6
	c1.7-1.7,2.6-3.8,2.6-6.3v-39.7h-10.3v-42h47.9c3.5,0,5.1,1.7,5.1,5.2v78.4c0,6.4-1.2,12.4-3.6,18.1c-2.5,5.7-5.7,10.5-9.9,14.7
	c-4.1,4.2-9,7.4-14.6,9.9c-5.6,2.5-11.5,3.7-17.9,3.7h-13.9c-6.3,0-12.3-1.2-17.9-3.7c-5.6-2.5-10.5-5.8-14.6-9.9
	c-4.1-4.2-7.4-9-9.9-14.7c-2.5-5.7-3.6-11.6-3.6-18.1V320.4c0-6.4,1.2-12.4,3.6-18.1c2.5-5.7,5.7-10.5,9.9-14.7
	c4.1-4.2,9-7.4,14.6-9.9c5.6-2.5,11.5-3.7,17.9-3.7h13.9C499.8,274,505.8,275.3,511.4,277.7z M680,279.3v215.4
	c0,3.6-1.7,5.3-5.3,5.3h-24c-1.5,0-2.9-0.5-4.3-1.5c-1.4-1-2.3-2.1-2.8-3.4l-39.7-98.3v97.9c0,3.6-1.7,5.3-5.3,5.3h-33.4
	c-3.5,0-5.3-1.7-5.3-5.3V279.3c0-3.6,1.7-5.3,5.3-5.3H590c1.5,0,2.9,0.5,4.3,1.5c1.4,1,2.3,2.1,2.8,3.4l39,109.6V279.3
	c0-3.6,1.7-5.3,5.3-5.3h33.4C678.3,274,680,275.7,680,279.3z M80,205.4v29.3c0,3.1-1.5,4.6-4.5,4.6H4.5c-3.1,0-4.5-1.5-4.5-4.6V13.8
	c0-3.1,1.5-4.6,4.5-4.6h70.9c3.1,0,4.5,1.5,4.5,4.6v29.3c0,3.1-1.5,4.6-4.5,4.6H38.2V95h32.4c3.1,0,4.5,1.5,4.5,4.6v29.3
	c0,3.1-1.5,4.6-4.5,4.6H38.2v67.4h37.2C78.5,200.8,80,202.3,80,205.4z M186.7,124.7c3.1,3.1,5.4,6.7,7,10.8
	c1.5,4.2,2.3,8.7,2.3,13.8v48.7c0,5.7-1.1,11-3.3,16.1c-2.2,5.1-5.2,9.4-8.9,13.1c-3.8,3.8-8.2,6.7-13.2,8.8
	c-5.1,2.2-10.5,3.3-16.2,3.3h-49.8c-3.1,0-4.6-1.5-4.6-4.6V13.8c0-3.1,1.5-4.6,4.6-4.6h49.8c5.7,0,11.1,1.1,16.2,3.3
	c5.1,2.2,9.5,5.2,13.2,8.8c3.7,3.8,6.7,8.1,8.9,13.1c2.2,5.1,3.3,10.4,3.3,16.1v32.9c0,10.1-3.1,18.6-9.3,25.3
	c-3.3,3.5-7.3,6.4-11.9,8.5C179.6,119.2,183.6,121.6,186.7,124.7z M157.2,52.4c0-2.2-0.8-4.1-2.3-5.6c-1.5-1.5-3.4-2.3-5.6-2.3
	h-10.6v55.9h10.6c2.2,0,4.1-0.8,5.6-2.3c1.5-1.5,2.3-3.4,2.3-5.6V52.4z M157.2,144c0-2.2-0.8-4.1-2.3-5.6c-1.5-1.5-3.4-2.3-5.6-2.3
	h-10.6v68h10.6c2.2,0,4.1-0.8,5.6-2.3c1.5-1.5,2.3-3.4,2.3-5.6V144z M296,205.4v29.3c0,3.1-1.5,4.6-4.5,4.6h-70.9
	c-3.1,0-4.5-1.5-4.5-4.6V13.8c0-3.1,1.5-4.6,4.5-4.6h70.8c3.1,0,4.5,1.5,4.5,4.6v29.3c0,3.1-1.5,4.6-4.5,4.6h-37.2V95h32.4
	c3.1,0,4.5,1.5,4.5,4.6v29.3c0,3.1-1.5,4.6-4.5,4.6h-32.4v67.4h37.2C294.4,200.8,296,202.3,296,205.4z M417.8,234.7
	c0.7,3.1-0.4,4.6-3.3,4.6h-29.9c-1.3,0-2.6-0.4-3.8-1.3c-1.2-0.9-2-2-2.5-3.3l-24-80.5V236c-0.7,2.2-2.2,3.3-4.6,3.3h-29.3
	c-3.1,0-4.6-1.5-4.6-4.6V13.8c0-3.1,1.5-4.6,4.6-4.6h49.2c5.7,0,11,1.1,16.1,3.3c5.1,2.2,9.4,5.2,13.1,8.8c3.7,3.8,6.6,8.1,8.8,13.1
	c2.2,5.1,3.3,10.4,3.3,16.1v53.6c0,8.1-2.1,15.4-6.3,21.8c-4.2,6.5-9.6,11.4-16.4,15L417.8,234.7z M354.4,110.5h10.5
	c2.2,0,4.1-0.8,5.6-2.3c1.5-1.5,2.3-3.4,2.3-5.6V52.3c0-2.2-0.8-4.1-2.3-5.6c-1.5-1.5-3.4-2.3-5.6-2.3h-10.5V110.5z M585,91.9
	c35.9-103.2-153-136.9-146.8-8.8c6.1,125.1,6.7,156.9,6.7,156.9l155.9-1.8C728.8,237.6,685.6,52.2,585,91.9z"/>
</svg>
