<?xml version="1.0" encoding="utf-8"?>
<!-- Generator: Adobe Illustrator 24.0.3, SVG Export Plug-In . SVG Version: 6.00 Build 0)  -->
<svg version="1.1" id="mercedes-benz-logo" xmlns="http://www.w3.org/2000/svg" xmlns:xlink="http://www.w3.org/1999/xlink" x="0px"
	 y="0px" viewBox="0 0 132 82" style="enable-background:new 0 0 132 82;" xml:space="preserve">
<style type="text/css">
	.st0{fill:none;}
</style>
<path id="mercedes-benz" class="st0" d="M84.8,75.2h4.9v1.2h-4.9V75.2z M3,68.3L2.5,79.8V80c0,1,0.3,1.2,1.8,1.3v0.5
	c-1.1-0.1-1.6-0.1-2.2-0.1s-1.1,0-2.2,0.1v-0.5c1.5-0.1,1.8-0.3,1.8-1.5l0.5-10.9v-0.1c0-1-0.3-1.2-1.8-1.3v-0.6
	C1.3,66.9,1.6,67,2.2,67c0.8,0,1.3,0,2.1-0.1l4.1,11.2l4.2-11.2c1,0.1,1.4,0.1,2.1,0.1c0.5,0,0.9,0,1.7-0.1v0.6
	c-1.5,0.1-1.8,0.3-1.8,1.3v0.1l0.3,10.9c0,1.2,0.2,1.4,1.8,1.5v0.5c-1.4-0.1-1.9-0.2-2.7-0.2c-0.8,0-1.4,0-2.7,0.2v-0.5
	c1.5-0.1,1.8-0.3,1.8-1.4v-0.1l-0.2-11.5l-3.6,9.9l-0.3,0.7l-0.3,0.8l-0.3,0.9l-0.2,0.7H7.7l-0.2-0.7l-0.3-0.9l-0.3-0.9l-0.3-0.8
	L3,68.3z M21.9,71.6C21.9,71.6,22,71.6,21.9,71.6c1.5,0,2.2,1.2,2.4,3.9h-2.4v0.8H26c0-3.4-1.4-5.2-4-5.2c0,0-0.1,0-0.1,0L21.9,71.6
	L21.9,71.6z M21.9,82v-0.8c0.2,0,0.3,0,0.5,0c1.6,0,2.5-1,2.8-2.9h0.9c-0.3,2.3-1.7,3.6-3.8,3.6C22.1,82,22,82,21.9,82z M19.5,75.4
	c0.2-2.5,1-3.8,2.4-3.9V71c-2.6,0-4.2,2.2-4.2,5.6c0,3.3,1.5,5.3,4.2,5.4v-0.8c-1.6-0.2-2.4-1.8-2.4-5h2.4v-0.8H19.5z M27.3,71.8
	v-0.4c1.3-0.1,2-0.3,2.9-0.5c0.1,0.8,0.2,1.2,0.2,1.8V73c0.5-1.3,1.4-2,2.6-2c1.1,0,1.9,0.7,1.9,1.8c0,0.6-0.4,1.1-0.9,1.1
	c-0.5,0-0.9-0.3-0.9-0.8c0,0,0-0.1,0-0.2l0-0.2v-0.2c0-0.3-0.3-0.5-0.7-0.5c-1.1,0-1.9,1.4-1.9,3.6v4.6c0,0.9,0.2,1.1,1.6,1.2v0.4
	c-1.2-0.1-1.7-0.1-2.4-0.1c-0.8,0-1.3,0-2.5,0.1v-0.4c1.4-0.1,1.6-0.3,1.6-1.2v-6.9v-0.4c0-0.9-0.1-1.1-1.3-1.1H27.3z M43.4,70.8
	v3.7h-0.5c-0.4-1.9-1.2-2.9-2.5-2.9c-1.6,0-2.6,1.8-2.6,5c0,3.1,0.9,4.7,2.6,4.7c1.4,0,2.2-1,2.4-2.9h0.9c-0.3,2.4-1.5,3.7-3.5,3.7
	c-2.5,0-4.3-2.2-4.3-5.4c0-3.3,1.8-5.6,4.4-5.6c0.9,0,1.5,0.2,2.2,0.9l0.6-1.1L43.4,70.8L43.4,70.8z M49.4,71.6
	C49.4,71.6,49.4,71.6,49.4,71.6c1.5,0,2.2,1.2,2.4,3.9h-2.4v0.8h4.1c0-3.4-1.4-5.2-4-5.2c0,0-0.1,0-0.1,0L49.4,71.6L49.4,71.6z
	 M49.4,82v-0.8c0.2,0,0.3,0,0.5,0c1.6,0,2.5-1,2.8-2.9h0.9c-0.3,2.3-1.7,3.6-3.9,3.6C49.6,82,49.4,82,49.4,82z M47,75.4
	c0.2-2.5,1-3.8,2.4-3.9V71c-2.6,0-4.2,2.2-4.2,5.6c0,3.3,1.5,5.3,4.2,5.4v-0.8c-1.7-0.2-2.4-1.8-2.4-5h2.4v-0.8H47z M59.6,81.4
	L59.6,81.4l0,0.6c1.2,0,2-0.6,2.5-1.8c0.1,0.8,0.1,0.9,0.3,1.8c0.9-0.3,1.3-0.4,2.6-0.6l0.3,0V81c-1.5,0-1.6-0.2-1.6-1.5V66.7
	c-1.1,0.3-2.1,0.5-3.3,0.6v0.4c1.4,0,1.6,0.1,1.6,1.3v3.9c-0.8-1.2-1.4-1.7-2.4-1.7v0.6c1.6,0,2.4,1.7,2.4,5
	C62,79.8,61.2,81.4,59.6,81.4z M59.6,81.4c-1.6,0-2.4-1.7-2.4-4.8c0-3.2,0.8-4.8,2.4-4.8c0,0,0,0,0,0v-0.6c-0.1,0-0.2,0-0.3,0
	c-2.3,0-4,2.3-4,5.4c0,3.2,1.7,5.4,4.1,5.4c0.1,0,0.1,0,0.2,0L59.6,81.4L59.6,81.4z M70.3,71.6C70.4,71.6,70.4,71.6,70.3,71.6
	c1.5,0,2.2,1.2,2.4,3.9h-2.4v0.8h4.1c0-3.4-1.4-5.2-4-5.2c0,0-0.1,0-0.1,0L70.3,71.6L70.3,71.6z M70.3,82v-0.8c0.2,0,0.3,0,0.5,0
	c1.6,0,2.5-1,2.8-2.9h0.9c-0.3,2.3-1.7,3.6-3.9,3.6C70.5,82,70.4,82,70.3,82z M67.9,75.4c0.2-2.5,1-3.8,2.4-3.9V71
	c-2.6,0-4.2,2.2-4.2,5.6c0,3.3,1.5,5.3,4.2,5.4v-0.8c-1.7-0.2-2.4-1.8-2.4-5h2.4v-0.8H67.9z M76.3,82v-3.7l0.5,0c0.4,2,1.3,3,2.9,3
	c1.3,0,2.3-0.9,2.3-2c0-0.7-0.4-1.3-1.5-1.8l-0.8-0.4l-1-0.5c-1.6-0.8-2.1-1.4-2.1-2.7c0-1.8,1.4-2.9,3.3-2.9c0.9,0,1.5,0.2,2.2,0.7
	l0.4-0.9h0.4v3.4h-0.5c-0.2-1.8-0.9-2.6-2.3-2.6c-1.2,0-2.1,0.8-2.1,1.8c0,0.9,0.3,1.2,2.3,2.1l0.9,0.4c1.7,0.7,2.3,1.4,2.3,2.7
	c0,1.9-1.5,3.2-3.6,3.2c-1,0-1.8-0.3-2.6-0.9l-0.5,1L76.3,82L76.3,82z M96.2,74.4c0.8,0,1.4,0.3,1.8,0.7c0.5,0.5,0.8,1.5,0.8,2.5
	c0,2.1-0.9,3.3-2.6,3.4v0.7c1.2,0,1.9-0.3,2.7-0.8c1.1-0.7,1.8-2.1,1.8-3.5c0-1.2-0.5-2.3-1.4-3c-0.5-0.3-1-0.6-1.7-0.7
	c1.6-0.6,2.4-1.7,2.4-3.3c0-1.2-0.5-2.2-1.3-2.8c-0.7-0.5-1.4-0.7-2.6-0.8v0.7c1.3,0.2,1.9,1.2,1.9,2.9c0,1-0.3,1.8-0.7,2.3
	c-0.3,0.4-0.7,0.6-1.2,0.7L96.2,74.4L96.2,74.4z M95.7,74.4c0.2,0,0.4,0,0.5,0v-0.8c-0.3,0-0.7,0.1-1.1,0.1h-1.5v-6h1.9
	c0.3,0,0.5,0,0.7,0v-0.7c-0.2,0-0.3,0-0.5,0h-5.8v0.6c1.6,0.1,1.8,0.3,1.8,1.5v10.8c0,1.2-0.2,1.4-1.8,1.5v0.5h5.6
	c0.3,0,0.5,0,0.7,0V81c-0.2,0-0.3,0-0.5,0h-0.8c-1.2,0-1.4-0.2-1.4-1.2v-5.5L95.7,74.4L95.7,74.4z M106.7,71.6
	C106.8,71.6,106.8,71.6,106.7,71.6c1.5,0,2.2,1.2,2.4,3.9h-2.4v0.8h4.1c0-3.4-1.4-5.2-4-5.2c0,0-0.1,0-0.1,0L106.7,71.6L106.7,71.6z
	 M106.7,82v-0.8c0.2,0,0.3,0,0.5,0c1.6,0,2.5-1,2.8-2.9h0.9c-0.3,2.3-1.7,3.6-3.9,3.6C106.9,82,106.8,82,106.7,82z M104.4,75.4
	c0.2-2.5,1-3.8,2.4-3.9V71c-2.6,0-4.2,2.2-4.2,5.6c0,3.3,1.5,5.3,4.2,5.4v-0.8c-1.7-0.2-2.4-1.8-2.4-5h2.4v-0.8H104.4z M112,71.9
	v-0.4c1.3-0.2,2-0.4,2.9-0.7c0.1,0.5,0.2,1.1,0.2,1.9c0.8-1.2,1.7-1.7,3-1.7c1.3,0,2.5,0.7,2.9,1.8c0.2,0.6,0.3,1.2,0.3,2v5.3
	c0,0.9,0.2,1.1,1.6,1.2v0.4c-1.2-0.1-1.6-0.1-2.4-0.1c-0.8,0-1.3,0-2.4,0.1v-0.4c1.2,0,1.5-0.3,1.5-1.2v-5.4c0-1.9-0.6-2.7-2-2.7
	c-1.5,0-2.3,0.9-2.3,2.8v5.4c0,0.9,0.3,1.1,1.4,1.2v0.4c-1.1-0.1-1.6-0.1-2.4-0.1c-0.8,0-1.2,0-2.4,0.1v-0.4
	c1.3-0.1,1.6-0.3,1.6-1.2v-6.9V73c0-0.9-0.2-1-1.3-1C112.3,71.9,112.1,71.9,112,71.9z M123.8,81.7l6-9.9h-2.7
	c-1.4,0-1.8,0.3-2.6,2.3H124l0.5-2.9h7.5v0.2l-5.9,9.7h2.6c1.5,0,2.1-0.6,2.8-2.6h0.5l-0.6,3.2L123.8,81.7L123.8,81.7z M75.6,2.5
	c7,3.7,11.8,11.1,11.8,19.7s-4.8,16-11.8,19.7v-2.5c2.7-1.6,4.9-3.9,6.6-6.6l-6.6-2.7V26l7.2,5.7c1.5-2.8,2.4-6,2.4-9.5
	c0-7.3-3.8-13.6-9.6-17.1V2.5L75.6,2.5z M65.4,0c3.7,0,7.1,0.9,10.2,2.5v2.5c-2.8-1.7-6.1-2.7-9.6-2.8l2.5,18.2l7.1,5.6v4.1
	l-10.2-4.2l-10.2,4.2V26l7.1-5.6l2.5-18.2c-3.5,0.1-6.8,1.1-9.6,2.8V2.5C58.2,0.9,61.7,0,65.4,0L65.4,0z M75.6,41.9
	c-3.1,1.6-6.5,2.5-10.2,2.5c-3.7,0-7.2-0.9-10.2-2.5v-2.6c3,1.8,6.5,2.9,10.2,2.9c3.7,0,7.2-1,10.2-2.9
	C75.6,39.3,75.6,41.9,75.6,41.9z M55.1,41.9c-7-3.7-11.8-11.2-11.8-19.7s4.8-16,11.8-19.7v2.5c-5.8,3.5-9.6,9.9-9.6,17.1
	c0,3.4,0.9,6.7,2.4,9.5l7.2-5.7v4.1l-6.6,2.7c1.6,2.7,3.9,4.9,6.6,6.5V41.9L55.1,41.9z"/>
</svg>
