<?xml version="1.0" encoding="utf-8"?>
<!-- Generator: Adobe Illustrator 24.0.3, SVG Export Plug-In . SVG Version: 6.00 Build 0)  -->
<svg version="1.1" id="kate-spade-logo" xmlns="http://www.w3.org/2000/svg" xmlns:xlink="http://www.w3.org/1999/xlink" x="0px"
	 y="0px" viewBox="0 0 140 68" style="enable-background:new 0 0 140 68;" xml:space="preserve">
<style type="text/css">
	.st0{fill:none;}
</style>
<path id="kate-spade" class="st0" d="M4.6,38.5l1.9-2.1C7,36,8.7,34.2,8.7,33.5c0-0.7-1.1-0.7-1.5-0.7v-0.6l2.5,0.1l2.4-0.1v0.6
	c-1.5,0-1.8,0.5-2.8,1.6l-2.6,3l5.5,5.4c0.8,0.7,0.9,1.1,2,1.3v0.6c-0.6,0-1.2-0.1-1.7-0.1l-1.8,0.1l-5.4-5.8l-0.6,0.6v1.8
	c0,1.9-0.3,2.8,2,2.9v0.6l-3.2-0.1c-1.1,0-2.1,0.1-3.2,0.1v-0.6c2.1-0.1,2-0.8,2-2.7V30c0-0.7,0-2.2-0.3-2.7
	c-0.4-0.7-1.2-0.7-1.8-0.8v-0.6L4.6,25L4.6,38.5L4.6,38.5z M21.5,38.2c-1.8,0.8-4.5,1.9-4.5,4.3c0,1.6,1.5,2.5,3,2.5
	c1.7,0,3.4-1,4.7-2.1c0.3,1.1,1.3,2.1,2.5,2.1c1.1,0,2.1-1,2.6-1.9l-0.5-0.3c-0.3,0.4-0.6,0.9-1.2,0.9c-1.1,0-1-2.1-1-2.9v-4.7
	c0-3.3-1.5-4.1-4.6-4.1c-1.5,0-5.2,0.4-5.2,2.5c0,0.6,0.5,1,1.1,1c0.7,0,1.1-0.6,1.1-1.3c0.1-1.5,1.2-1.6,2.7-1.6
	c2.3,0,2.5,1.4,2.5,3.3c0,0.3,0,0.7-0.2,0.8L21.5,38.2L21.5,38.2z M24.5,42.2c-0.8,0.8-2,1.6-3.1,1.6c-1.2,0-1.8-1-1.8-2.1
	c0-2.3,3.2-3.4,4.9-4.2L24.5,42.2L24.5,42.2L24.5,42.2L24.5,42.2z M32,33.3v-0.5c1.4-0.8,2.9-2,3.5-3.6h0.4v3.4h3.3v0.8h-3.3v8.2
	c0,1.3,0.3,2.7,1.8,2.7c1,0,1.5-0.6,2.1-1.3l0.5,0.4c-0.5,1.4-1.9,1.8-3.3,1.8c-2.1,0-3.5-0.8-3.5-3v-8.8H32L32,33.3z M53.7,42
	c-0.9,1.1-2.1,2.1-3.6,2.1c-3,0-4.5-3.1-4.5-5.8l0.1-1.4h8.2c0.3,0,0.7,0.1,0.7-0.3c0-3.1-2.6-4.7-5.4-4.7c-3.7,0-6.4,3.2-6.4,6.9
	c0,3.7,2.9,6.2,6.5,6.2c2.1,0,3.7-0.8,5.1-2.4L53.7,42L53.7,42z M45.9,36.2c0.3-1.9,1.2-3.5,3.3-3.5c1.8,0,2.8,1.1,2.8,3
	c0,0.7-0.9,0.6-1.4,0.6H45.9z M66.7,44.8h-0.3l-0.1-4.1h0.6c0.5,1.9,1.4,3.7,3.5,3.7c1.3,0,2.4-0.6,2.4-2c0-1.6-1.7-2.3-2.9-2.9
	c-1.7-0.9-3.4-1.8-3.4-4c0-2,1.6-3.4,3.5-3.4c0.9,0,2,0.2,2.8,0.7l0.6-0.7h0.3l0,3.6h-0.6c-0.5-1.4-1.1-3-2.9-3
	c-0.9,0-1.8,0.5-1.8,1.6c0,1.5,1.6,2,2.6,2.6c2,1,3.7,1.8,3.7,4.4c0,2.4-2,3.8-4.2,3.8c-1.1,0-2.3-0.3-3.1-1L66.7,44.8L66.7,44.8z
	 M81.7,32c-1.3,0.3-2.7,0.7-4.2,0.9v0.6c0.9,0,1.7-0.1,1.9,0.9c0.1,0.7,0.1,2.7,0.1,3.5v11.3c0,1.9,0.2,2.6-2,2.8v0.6l3.4-0.1
	l3.2,0.1v-0.6C81.8,51.8,82,51,82,49v-5.6c1.2,1.1,2.4,1.6,4.1,1.6c3.6,0,6.2-2.9,6.2-6.4c0-3.7-2.6-6.6-6.3-6.6
	c-1.8,0-3.2,0.8-4.3,2.3L81.7,32L81.7,32z M82,37.8c0-1.2,0-2.2,0.6-3.2c0.6-1,1.7-1.6,2.9-1.6c3.1,0,3.9,3,3.9,5.6
	c0,2.6-0.9,5.6-4,5.6c-1,0-2.1-0.4-2.8-1.1C82,42.2,82,40.8,82,39.8L82,37.8L82,37.8z M100.3,38.2c-1.8,0.8-4.5,1.9-4.5,4.3
	c0,1.6,1.5,2.5,3,2.5c1.7,0,3.4-1,4.7-2.1c0.3,1.1,1.3,2.1,2.5,2.1c1,0,2.1-1,2.6-1.9l-0.5-0.3c-0.3,0.4-0.6,0.9-1.2,0.9
	c-1.1,0-1-2.1-1-2.9v-4.7c0-3.3-1.5-4.1-4.6-4.1c-1.5,0-5.2,0.4-5.2,2.5c0,0.6,0.5,1,1.1,1c0.7,0,1.1-0.6,1.1-1.3
	c0.1-1.5,1.2-1.6,2.7-1.6c2.3,0,2.5,1.4,2.5,3.3c0,0.3,0,0.7-0.2,0.8L100.3,38.2L100.3,38.2z M103.4,42.2c-0.8,0.8-2,1.6-3.1,1.6
	c-1.2,0-1.8-1-1.8-2.1c0-2.3,3.2-3.4,4.9-4.2L103.4,42.2L103.4,42.2L103.4,42.2L103.4,42.2z M125.8,44.1v-0.6c-0.9,0-1.7,0-2.1-1
	c-0.3-0.8-0.3-2.2-0.3-3V25l-4.6,0.9v0.6c2,0,2.1,1,2.1,2.7v4.5c-1-1.2-2.5-1.8-4.1-1.8c-3.6,0-6.1,3.1-6.1,6.7
	c0,3.6,2.5,6.3,6.1,6.3c1.9,0,3.2-0.7,4.5-2.2c0.1,0.8,0.3,1.5,0.6,2.2L125.8,44.1L125.8,44.1z M121,39.9c0,2.3-0.8,4.3-3.4,4.3
	c-3.1,0-3.9-3-3.9-5.6c0-2.5,0.8-5.8,3.9-5.8c1.7,0,3.4,1.1,3.4,2.9V39.9z M139.1,42c-0.9,1.1-2.1,2.1-3.6,2.1c-3,0-4.5-3.1-4.5-5.8
	l0.1-1.4h8.2c0.3,0,0.7,0.1,0.7-0.3c0-3.1-2.6-4.7-5.4-4.7c-3.7,0-6.4,3.2-6.4,6.9c0,3.7,2.9,6.2,6.5,6.2c2.1,0,3.7-0.8,5.1-2.4
	L139.1,42L139.1,42z M131.4,36.2c0.3-1.9,1.2-3.5,3.3-3.5c1.8,0,2.8,1.1,2.8,3c0,0.7-0.9,0.6-1.4,0.6H131.4z M34.4,61.3
	c-0.3-0.5-0.6-0.7-1.2-0.7v-0.3l1.1,0c0.3,0,0.6,0,0.9,0l4.7,5.8V63c0-0.5,0-1.3-0.1-1.7c-0.1-0.6-0.4-0.6-1-0.7v-0.3l1.2,0
	c0.4,0,0.8,0,1.2,0v0.3c-0.4,0-0.7,0-0.9,0.5c-0.1,0.4-0.1,1.5-0.1,2v4.8H40c-0.2-0.3-0.5-0.6-0.7-0.9l-4.4-5.3v3.8
	c0,0.4,0,1.3,0.2,1.6c0.2,0.4,0.6,0.4,1,0.5v0.3c-0.4,0-0.9,0-1.3,0l-1.2,0v-0.3c0.4,0,0.9-0.1,1-0.6c0.1-0.4,0.1-1.1,0.1-1.5
	L34.4,61.3L34.4,61.3z M45.1,62.6c0-0.4,0-1.2-0.1-1.5c-0.1-0.4-0.6-0.4-1-0.4v-0.3h5.6v1.7h-0.3c-0.2-1.3-0.8-1.4-2-1.4h-0.8
	c-0.3,0-0.3,0-0.3,0.5v2.7c1.5,0.1,1.8-0.6,1.8-1.4h0.3c0,0.5,0,1,0,1.5l0,1.4h-0.2c-0.1-1.2-0.8-1.2-1.8-1.2V66
	c0,0.3,0,0.9,0.2,1.1c0.3,0.4,1,0.4,1.4,0.4c1.2,0,1.9-0.2,2.1-1.5h0.3l-0.1,1.8H44v-0.3c0.4,0,0.8,0,1-0.4c0.1-0.3,0.1-1.1,0.1-1.5
	L45.1,62.6L45.1,62.6L45.1,62.6L45.1,62.6z M57.8,62.3l-0.9,3.1c-0.3,0.9-0.6,1.8-0.9,2.7h-0.4l-1.9-6c-0.1-0.3-0.2-0.9-0.4-1
	c-0.2-0.3-0.5-0.3-0.8-0.3v-0.3l1.6,0c0.6,0,1.1,0,1.7,0v0.3c-0.4,0-1,0-1,0.5c0,0.3,0.3,1.1,0.3,1.4l1.2,3.9l1.8-6.1h0.4l1.8,6
	l0.8-2.4c0.1-0.5,0.6-2.1,0.6-2.5c0-0.7-0.4-0.7-1-0.8v-0.3l1.2,0c0.4,0,0.8,0,1.2,0v0.3c-0.8,0-1,0.9-1.2,1.5L60,68h-0.4L57.8,62.3
	L57.8,62.3z M73.3,66.3c0,1.1,0,1.1,1.1,1.2v0.3c-0.6,0-1.1,0-1.7,0l-1.7,0v-0.3c1.1-0.1,1.1-0.1,1.1-1.2v-1.4l-1-1.8
	c-0.1-0.2-1-1.9-1.4-2.3c-0.2-0.2-0.4-0.1-0.7-0.2v-0.3l1.5,0c0.5,0,1,0,1.6,0v0.3c-0.2,0-0.9,0-0.9,0.4c0,0.3,0.1,0.5,0.3,0.8
	l1.5,2.7l0.7-1.1c0.2-0.4,1.1-1.8,1.1-2.2c0-0.4-0.5-0.4-0.8-0.5v-0.3c0.4,0,0.8,0,1.2,0c0.4,0,0.7,0,1.1,0v0.3
	c-0.7,0-0.9,0.5-1.2,1l-1.9,3.2L73.3,66.3L73.3,66.3L73.3,66.3z M82.2,67.9c2.3,0,4.1-1.6,4.1-3.9c0-2.2-1.9-3.8-4-3.8
	c-2.2,0-4.1,1.6-4.1,3.9C78.1,66.4,80,67.9,82.2,67.9 M82.1,60.6c2,0,2.7,1.9,2.7,3.5s-0.6,3.5-2.6,3.5c-2,0-2.7-1.8-2.7-3.5
	C79.5,62.5,80.2,60.6,82.1,60.6 M92.6,64.1c1.1-0.1,2-0.7,2-1.9c0-1.6-1.3-1.9-2.6-1.9c-0.5,0-0.9,0-1.4,0c-0.6,0-1.3,0-1.9,0v0.3
	c0.4,0,0.8,0,0.9,0.4c0.1,0.3,0.1,1.1,0.1,1.5v3.2c0,0.4,0,1.2-0.1,1.5c-0.1,0.4-0.6,0.4-0.9,0.4v0.3c0.6,0,1.1,0,1.7,0
	c0.5,0,1.1,0,1.6,0v-0.3c-0.4,0-0.8,0-0.9-0.4C91,66.9,91,66,91,65.7v-1.3c0.6,0,0.6,0.1,0.9,0.5l1.8,2.3l0.5,0.7c0.3,0,0.6,0,0.9,0
	c0.3,0,0.7,0,1,0v-0.3c-0.6-0.1-0.7-0.2-1.1-0.7L92.6,64.1L92.6,64.1z M91,61.1c0-0.1,0-0.3,0.1-0.4c0.1,0,0.6,0,0.7,0
	c1,0,1.6,0.7,1.6,1.7c0,1.6-1,1.7-2.4,1.7V61.1L91,61.1z M100.2,65v1.3c0,1.1,0,1.1,1.1,1.2v0.3c-0.5,0-1.1,0-1.6,0
	c-0.6,0-1.1,0-1.7,0v-0.3c0.4,0,0.8,0,1-0.4c0.1-0.3,0.1-1.1,0.1-1.5v-3.2c0-0.4,0-1.2-0.1-1.5c-0.1-0.4-0.6-0.4-1-0.4v-0.3l1.6,0
	c0.6,0,1.2,0,1.7,0v0.3c-1.1,0.1-1.1,0.1-1.1,1.2v2.7c0.5-0.6,2.7-2.9,2.7-3.5c0-0.5-0.5-0.4-0.9-0.4v-0.3c0.4,0,0.9,0,1.3,0
	c0.4,0,0.8,0,1.2,0v0.3c-0.6,0-0.8,0.1-1.1,0.6l-1.8,2.2l1.6,1.8c0.1,0.2,1.3,1.7,1.8,2.1c0.2,0.2,0.4,0.1,0.7,0.2v0.3
	c-0.6,0-1.2,0-1.8,0l-1.7,0v-0.3c0.2,0,0.9,0,0.9-0.3c0-0.2-0.7-1.1-0.9-1.3l-1.4-1.7L100.2,65z M79.3,10c0,0,0.3-2.8-5.3-6.6
	c0,0-2.7-1.8-4-3.2c0,0-0.1-0.1-0.1-0.1c-0.1,0-0.1,0-0.1,0.1c-1.3,1.4-4,3.2-4,3.2C60,7.2,60.3,10,60.3,10c-0.2,2.4,1.6,4.7,4,4.7
	c1.9,0,3.3-1.1,3.8-1.6l0.2-0.2c0.1-0.1,0.2-0.2,0.2-0.3c0,0,0.1,0.1,0.1,0.1c0,0.1,0.1,0.2,0.1,0.3c0.2,2-2.2,4.5-3,5.2
	c0,0-0.2,0.2-0.2,0.5v0.4H74v-0.4c0-0.3-0.2-0.5-0.2-0.5c-0.7-0.7-3.2-3.2-3-5.2c0-0.1,0-0.2,0.1-0.3l0.1-0.1c0,0.1,0.1,0.2,0.2,0.3
	l0.2,0.2c0.5,0.5,1.9,1.6,3.8,1.6C77.7,14.7,79.5,12.4,79.3,10L79.3,10z"/>
</svg>
