<?xml version="1.0" encoding="utf-8"?>
<!-- Generator: Adobe Illustrator 24.0.3, SVG Export Plug-In . SVG Version: 6.00 Build 0)  -->
<svg version="1.1" id="crocs-logo" xmlns="http://www.w3.org/2000/svg" xmlns:xlink="http://www.w3.org/1999/xlink" x="0px" y="0px"
	 viewBox="0 0 145 28" style="enable-background:new 0 0 145 28;" xml:space="preserve">
<style type="text/css">
	.st0{fill:#FFFFFF;}
</style>
<path id="crocs" class="st0" d="M13.8,8.4c1.9,0,3.7,1,4.7,2.4c0,0,0,0.1,0.1,0.1c0,0.1,0.1,0.1,0.1,0.2l0,0
	c0.7,0.8,1.7,1.4,2.9,1.4c2,0,3.7-1.7,3.7-3.7c0-1-0.4-1.8-1-2.5c-2.5-3.2-5.5-5-10.5-5C5.9,1.3,0,6.8,0,14.6C0,22.5,5.9,28,13.8,28
	c5,0,8-1.8,10.5-4.6l0,0c0.6-0.6,0.9-1.5,0.9-2.4c0-2-1.6-3.6-3.6-3.6c-1.1,0-2.1,0.5-2.7,1.3c-1.2,1.2-2.5,2.4-5.1,2.4
	c-3.6,0-5.6-2.6-5.6-6.4C8.2,11,10.2,8.4,13.8,8.4z M125.6,11.4c-3.4-0.8-5-1-5-2.4c0-1,0.9-1.5,2.7-1.5c1.9,0,3.7,0.9,4.9,1.9l0,0
	c0.6,0.5,1.3,0.9,2.1,0.9c1.7,0,3.1-1.4,3.1-3.2c0-0.9-0.4-1.8-1-2.4c-2.1-2.1-5-3.5-9.1-3.5c-5.4,0-9.8,2.4-9.8,8.1
	c0,5.4,3.8,7.3,7.3,8.2c4.1,1.1,5.7,1.1,5.7,2.5c0,1.1-0.8,1.6-3.4,1.6c-2,0-3.9-0.8-5.5-2l0.1,0.1c0,0,0,0,0,0
	c-1.3-1.2-3.2-1.1-4.4,0.1c-1,1-1.1,2.6-0.5,3.8c0,0,0,0.1,0.1,0.1c0.1,0.1,0.1,0.2,0.2,0.3c0,0.1,0.1,0.1,0.2,0.2
	c0.1,0.1,0.1,0.1,0.2,0.2c0.1,0.1,0.1,0.1,0.2,0.1c2.2,2,5.4,3.5,10.2,3.5c7.9,0,10.4-3.9,10.4-8.6C133.9,14,129.3,12.3,125.6,11.4z
	 M65.7,1.3c-7.8,0-13.9,5.6-13.9,13.4c0,7.8,6.1,13.3,13.9,13.3c7.8,0,13.9-5.5,13.9-13.3C79.6,6.9,73.5,1.3,65.7,1.3z M65.7,21.1
	c-3.6,0-5.7-2.7-5.7-6.4c0-3.9,2.2-6.4,5.7-6.4c3.6,0,5.7,2.6,5.7,6.4C71.4,18.5,69.3,21.1,65.7,21.1z M97.6,8.4
	c1.9,0,3.7,1,4.7,2.4c0,0,0.1,0.1,0.1,0.1c0,0.1,0.1,0.1,0.1,0.2l0,0c0.7,0.8,1.7,1.4,2.8,1.4c2,0,3.7-1.7,3.7-3.7
	c0-1-0.4-1.8-1-2.5c-2.5-3.2-5.5-5-10.5-5c-7.9,0-13.8,5.5-13.8,13.3c0,7.9,5.9,13.4,13.8,13.4c5,0,8-1.8,10.5-4.6l0,0
	c0.6-0.6,0.9-1.5,0.9-2.4c0-2-1.6-3.6-3.6-3.6c-1.1,0-2.1,0.5-2.7,1.3c-1.2,1.2-2.5,2.4-5.1,2.4C94,21,92,18.3,92,14.6
	C92,11,94,8.4,97.6,8.4z M47.9,2.9c-1.2-0.7-2.1-0.8-3.9-0.6c-3.3,0.3-5.9,2.6-6.3,3.2v0.2c0-0.1,0-0.1,0-0.2c0,0,0,0,0,0v0
	c-0.2-2.2-1.9-3.8-4.1-3.8c-2.2,0-4,1.8-4.1,4.1v18.2c0.1,2.2,1.9,4,4.1,4c2.2,0,4.1-1.8,4.1-4.1v-4.9c0-6.7,3.8-8.4,6-8.5
	c0.6,0,2,0.6,3.2,0.3c2.2-0.4,3.7-2.6,3.3-4.8C49.8,4.5,49,3.5,47.9,2.9z M136.3,1.5h0.1V0.9c0-0.2,0-0.3,0-0.4c0-0.1,0-0.2,0.1-0.3
	c0-0.1,0.1-0.1,0.2-0.2c0.1,0,0.2-0.1,0.3-0.1c0.1,0,0.3,0,0.4,0.2c0.1,0.1,0.1,0.2,0.1,0.2c0,0.1,0,0.2,0,0.4v0.7h0.4
	c0.1,0,0.3,0,0.3,0.1c0.1,0.1,0.1,0.2,0.1,0.3c0,0.1-0.1,0.2-0.2,0.3c-0.1,0.1-0.3,0.1-0.5,0.1h-0.2v1.9c0,0.2,0,0.3,0,0.4
	c0,0.1,0,0.2,0.1,0.2c0.1,0.1,0.1,0.1,0.2,0.1c0.1,0,0.1,0,0.2,0c0.1,0,0.2,0,0.2,0c0.1,0,0.2,0,0.2,0.1c0.1,0.1,0.1,0.2,0.1,0.3
	c0,0.2-0.1,0.3-0.3,0.4c-0.2,0.1-0.4,0.1-0.8,0.1c-0.3,0-0.6-0.1-0.7-0.2c-0.2-0.1-0.3-0.3-0.3-0.5c-0.1-0.2-0.1-0.5-0.1-0.8v-2
	h-0.1c-0.2,0-0.3,0-0.3-0.1c-0.1-0.1-0.1-0.2-0.1-0.3c0-0.1,0-0.2,0.1-0.3C136,1.6,136.2,1.5,136.3,1.5z M142.6,3.7v1.4
	c0,0.2-0.1,0.4-0.2,0.5c-0.1,0.1-0.2,0.2-0.4,0.2c-0.2,0-0.3-0.1-0.4-0.2c-0.1-0.1-0.1-0.3-0.1-0.5V3.4c0-0.3,0-0.5,0-0.6
	c0-0.1-0.1-0.3-0.1-0.4c-0.1-0.1-0.2-0.1-0.4-0.1c-0.3,0-0.6,0.1-0.7,0.4c-0.1,0.2-0.2,0.6-0.2,1v1.4c0,0.2,0,0.4-0.1,0.5
	c-0.1,0.1-0.2,0.2-0.4,0.2c-0.2,0-0.3-0.1-0.4-0.2c-0.1-0.1-0.2-0.3-0.2-0.5V2c0-0.2,0-0.4,0.1-0.5c0.1-0.1,0.2-0.2,0.4-0.2
	c0.1,0,0.3,0,0.4,0.1C140,1.7,140,1.8,140,2v0.1c0.2-0.2,0.4-0.4,0.6-0.5c0.2-0.1,0.4-0.2,0.7-0.2c0.3,0,0.5,0.1,0.7,0.2
	c0.2,0.1,0.3,0.3,0.5,0.5c0.2-0.2,0.4-0.4,0.6-0.5c0.2-0.1,0.4-0.2,0.7-0.2c0.3,0,0.5,0.1,0.7,0.2c0.2,0.1,0.4,0.3,0.5,0.5
	C145,2.3,145,2.6,145,3v2.1c0,0.2-0.1,0.4-0.2,0.5c-0.1,0.1-0.2,0.2-0.4,0.2c-0.2,0-0.3-0.1-0.4-0.2c-0.1-0.1-0.2-0.3-0.2-0.5V3.3
	c0-0.2,0-0.4,0-0.5c0-0.1-0.1-0.3-0.2-0.3c-0.1-0.1-0.2-0.1-0.4-0.1c-0.1,0-0.3,0-0.4,0.1c-0.1,0.1-0.2,0.2-0.3,0.3
	C142.6,2.9,142.6,3.2,142.6,3.7z"/>
</svg>
