<?xml version="1.0" encoding="utf-8"?>
<!-- Generator: Adobe Illustrator 24.0.3, SVG Export Plug-In . SVG Version: 6.00 Build 0)  -->
<svg version="1.1" id="verde-natural-logo" xmlns="http://www.w3.org/2000/svg" xmlns:xlink="http://www.w3.org/1999/xlink" x="0px"
	 y="0px" viewBox="0 0 390 390" style="enable-background:new 0 0 390 390;" xml:space="preserve">
<style type="text/css">
	.st0{fill:#25362C;}
</style>
<path id="verde-natural" class="st0" d="M31.6,267.2l-5.1,2.1l-0.8-2l12.3-5l0.8,2l-5.1,2.1l0.9,2.3l5.1-2.1l0.8,2l-12.3,5.1l-0.8-2
	l5.1-2.1L31.6,267.2z M36.2,289.9l-1-1.9l11.6-6.4l1,1.9L36.2,289.9z M55,301.9l0.6-0.4c0.4-0.3,0.5-0.8,0.2-1.2l-0.5-0.7
	c-0.3-0.4-0.8-0.5-1.2-0.2l-5.9,4.2c-0.4,0.3-0.5,0.8-0.2,1.2l0.5,0.7c0.3,0.4,0.8,0.5,1.2,0.2l2.1-1.5l-0.7-1l1.8-1.2l2,2.8
	l-3.8,2.7c-1.4,1-3.2,0.6-4.2-0.7l-0.5-0.7c-1-1.4-0.6-3.2,0.7-4.2l5.9-4.2c1.4-1,3.2-0.6,4.2,0.7l0.5,0.7c1,1.4,0.7,3.2-0.7,4.2
	l-0.6,0.4L55,301.9z M64,319.5l-4.1,3.7l-1.4-1.6l9.8-8.9l1.4,1.6l-4.1,3.7l1.7,1.8l4.1-3.7l1.5,1.6l-9.8,8.9l-1.5-1.6l4.1-3.7
	L64,319.5z M91.2,347.4l4.1-6c0.9-1.4,2.4-2,3.7-1.1l1.1,0.8c1.4,0.9,1.7,2.8,0.8,4.2l-4.1,6c-0.8,1.1-2.1,1.5-3.3,1.2l-0.2,1.1
	l-2.1-0.4l0.3-1.8C90.2,350.4,90.3,348.8,91.2,347.4z M93.2,349.8l0.7,0.4c0.4,0.3,0.9,0.2,1.2-0.2l4.1-6c0.3-0.4,0.2-0.9-0.2-1.2
	l-1.1-0.8c-0.4-0.3-0.5,0.1-0.7,0.5l-4.1,6C92.7,349,92.8,349.6,93.2,349.8z M111.6,363.4c-1.5-0.8-2-2.6-1.3-4l4.7-9.1l1.9,1
	l-4.7,9.1c-0.2,0.4,0,0.9,0.4,1.2l0.7,0.4c0.4,0.2,0.9,0.1,1.1-0.4l4.7-9.1l1.9,1l-4.7,9.1c-0.8,1.5-2.6,2-4.1,1.3L111.6,363.4z
	 M139.6,364.4l-3.5,9.6l-2-0.7l1-2.7l-2.3-0.8l-1,2.7l-2-0.7l3.5-9.6c0.6-1.6,2.3-2.4,3.9-1.8l0.7,0.3
	C139.4,361.1,140.2,362.8,139.6,364.4z M137.6,363.6c0.2-0.4-0.1-0.9-0.5-1.1l-0.7-0.3c-0.4-0.2-0.9,0.1-1.1,0.5l-1.8,4.9l2.3,0.8
	L137.6,363.6z M151.5,378.6l2.9-12.9l2.1,0.5l-2.5,10.8l4.5,1l-0.5,2.1L151.5,378.6z M176.1,382.9l-2.1-0.2l1.5-13.2l2.1,0.2
	L176.1,382.9z M198.9,372.9h-2.4V384h-2.1v-11.1H192v-2.1h6.9V372.9z M216.6,377.2c-1.5,0-2.5-1-2.7-2.5l-0.6-4.8l2.1-0.3l0.6,4.8
	c0.1,0.3,0.5,0.6,0.9,0.6l0.8-0.1c0.5-0.1,0.8-0.4,0.8-0.8l-0.6-4.8l2.1-0.3l0.6,4.8c0.2,1.4-0.5,2.7-2,3.1l0.7,5.6l-2.1,0.3
	L216.6,377.2z M259.5,372.6l-1.2,0.5c-1.5,0.6-2.8-0.4-3.4-1.9l-2.5-6.8c-0.6-1.5,0.2-3.3,1.8-3.9l0.7-0.3c1.5-0.6,3.3,0.2,3.9,1.8
	l0.3,0.7l-2,0.8l-0.3-0.7c-0.2-0.4-0.6-0.7-1.1-0.5l-0.7,0.3c-0.4,0.2-0.7,0.7-0.5,1.1l2.5,6.8c0.2,0.4,0.7,0.7,1.1,0.5l0.7-0.3
	c0.4-0.2,0.7-0.7,0.5-1.1l-0.3-0.7l2-0.8l0.3,0.7C261.9,370.2,261.1,372,259.5,372.6z M278.3,352.7l4.8,9.1l-1.9,1l-1.3-2.5
	l-2.2,1.2l1.3,2.5l-1.9,1l-4.8-9.1c-0.8-1.5-0.2-3.3,1.3-4.1l0.7-0.4C275.7,350.7,277.5,351.3,278.3,352.7z M276.4,353.7
	c-0.2-0.4-0.7-0.6-1.2-0.4l-0.7,0.4c-0.4,0.2-0.6,0.7-0.4,1.2l2.4,4.6l2.2-1.2L276.4,353.7z M298.6,352.3l-1.8,1.2l-7.6-10.9
	l3.1-2.2c1.4-0.9,3.2-0.6,4.2,0.7l5.9,8.4l-1.8,1.2l-5.9-8.4c-0.3-0.4-0.8-0.5-1.2-0.2l-1.3,0.9L298.6,352.3z M316.7,338.2l-1.6,1.4
	l-8.9-9.8l2.8-2.5c1.2-1.1,3.1-1,4.2,0.2l6.9,7.6l-1.6,1.5l-6.9-7.6c-0.3-0.3-0.8-0.4-1.2-0.1l-1.2,1.1L316.7,338.2z M328.1,311.7
	l7.7,6.7l-1.4,1.7l-2.2-1.9l-1.6,1.9l2.2,1.9l-1.4,1.6l-7.7-6.7c-1.3-1.1-1.4-3-0.3-4.3l0.5-0.6
	C324.9,310.8,326.8,310.6,328.1,311.7z M326.7,313.4c-0.4-0.3-0.9-0.3-1.2,0.1L325,314c-0.3,0.4-0.3,0.9,0.1,1.2l4,3.4l1.6-1.9
	L326.7,313.4z M347.7,302.5l-2.1,3.1l-11-7.4l2.1-3.1c0.9-1.4,2.8-1.8,4.2-0.8l1.4,0.9c0.6,0.4,1,1,1.2,1.7c0.7-0.1,1.4,0.1,2,0.5
	l1.4,0.9C348.3,299.2,348.6,301.1,347.7,302.5z M340.4,299.6l0.9-1.4c0.3-0.4,0.1-0.9-0.3-1.2l-1.4-0.9c-0.4-0.3-0.9-0.2-1.2,0.2
	l-0.9,1.4L340.4,299.6z M345,302.7l0.9-1.4c0.3-0.4,0.1-0.9-0.3-1.2l-1.4-0.9c-0.4-0.3-0.9-0.2-1.2,0.2l-0.9,1.4L345,302.7z
	 M358.4,284.2l-1,1.9l-11.8-6l1-1.9L358.4,284.2z M357.8,259.7l0.7,0.3l-0.8,2l-0.7-0.3c-0.4-0.2-0.9,0.1-1.1,0.5l-0.3,0.7
	c-0.2,0.4,0.1,1,0.5,1.1l1.5,0.6c0.4,0.2,1-0.1,1.1-0.5l0.3-0.7c0.6-1.6,2.3-2.4,3.9-1.8l1.6,0.6c1.5,0.6,2.3,2.3,1.7,3.9l-0.3,0.7
	c-0.6,1.5-2.3,2.3-3.9,1.8l-0.7-0.3l0.8-2l0.7,0.3c0.4,0.2,0.9-0.1,1.1-0.5l0.3-0.7c0.2-0.4-0.1-0.9-0.5-1.1l-1.5-0.6
	c-0.5-0.2-1,0.1-1.1,0.5l-0.3,0.7c-0.6,1.6-2.3,2.4-3.9,1.8l-1.6-0.6c-1.5-0.6-2.3-2.3-1.8-3.9l0.3-0.7
	C354.5,259.9,356.3,259.1,357.8,259.7z M192.3,344c-36.9,0-73.8-14.1-101.9-42.2c-56.2-56.2-56.2-147.7,0-203.9
	c56.2-56.2,147.6-56.2,203.8,0c56.2,56.2,56.2,147.7,0,203.9C266.1,329.9,229.2,344,192.3,344z M192.3,57.5
	c-36.4,0-72.9,13.9-100.6,41.6c-55.5,55.5-55.5,145.8,0,201.3c55.5,55.5,145.8,55.5,201.2,0s55.5-145.8,0-201.3
	C265.2,71.4,228.7,57.5,192.3,57.5z M123.6,292.1c0,1-0.8,1.9-1.9,1.9c-1,0-1.9-0.8-1.9-1.9c0-1,0.8-1.9,1.9-1.9
	C122.8,290.2,123.6,291,123.6,292.1z M104.3,269.3c-2.1,0-3.8,1.7-3.8,3.8s1.7,3.8,3.8,3.8c2.1,0,3.8-1.7,3.8-3.8
	S106.4,269.3,104.3,269.3z M148.8,309.6c-1.6,0-2.9,1.3-2.9,2.9c0,1.6,1.3,2.9,2.9,2.9c1.6,0,2.9-1.3,2.9-2.9
	C151.6,310.9,150.4,309.6,148.8,309.6z M182.6,307.3c-2.1,0-3.8,1.7-3.8,3.8s1.7,3.8,3.8,3.8c2.1,0,3.8-1.7,3.8-3.8
	S184.6,307.3,182.6,307.3z M211.3,317.6c-1.6,0-2.9,1.3-2.9,2.9c0,1.6,1.3,2.9,2.9,2.9c1.6,0,2.9-1.3,2.9-2.9
	C214.2,318.9,212.9,317.6,211.3,317.6z M183.4,277.4c1,0,1.9-0.8,1.9-1.9c0-1-0.8-1.9-1.9-1.9c-1,0-1.9,0.8-1.9,1.9
	C181.5,276.5,182.4,277.4,183.4,277.4z M211.8,287.9c-2.1,0-3.8,1.7-3.8,3.8c0,2.1,1.7,3.8,3.8,3.8c2.1,0,3.8-1.7,3.8-3.8
	C215.6,289.6,213.9,287.9,211.8,287.9z M154.1,281.2c-2.1,0-3.8,1.7-3.8,3.8s1.7,3.8,3.8,3.8c2.1,0,3.8-1.7,3.8-3.8
	S156.2,281.2,154.1,281.2z M60.4,64.7c-0.8-1-1.5-1.9-2.1-2.5c1-0.8,2.6-2.2,4.9-4.2c0.6-0.5,1.4-1.3,2.5-2.3c1.1-1,1.9-1.7,2.4-2.1
	c3-2.6,5.9-3.8,8.6-3.6c2.7,0.2,5.6,2.1,8.6,5.5c2.7,3.1,4.2,6.1,4.3,8.8c0.1,2.7-1.2,5.4-4.1,7.9c-0.5,0.5-1.5,1.3-2.8,2.4
	c-1.4,1.2-2.4,2.1-3.1,2.7c-2.1,1.9-3.7,3.2-4.6,4c-0.7-0.9-1.4-1.7-2.2-2.5c0.3-0.2,1-0.8,2-1.7c0.6-0.6,1-1,1-1.4
	c0.1-0.4-0.1-0.9-0.5-1.4c-2.7-3.5-5.9-7.4-9.8-11.6c-0.5-0.6-0.9-0.9-1.4-0.9c-0.4,0-0.9,0.2-1.5,0.8c-0.6,0.5-1.1,0.9-1.5,1.3
	C60.6,64.4,60.4,64.6,60.4,64.7z M67.2,58.8c4,5.1,8.1,9.8,12.1,14.3c0.5-0.5,1.8-1.5,3.8-3.3c1.8-1.6,2.7-3.4,2.5-5.3
	c-0.2-1.9-1.3-4.1-3.5-6.6c-2.3-2.6-4.3-4-6.1-4.2c-1.9-0.2-3.7,0.5-5.6,2.1c-0.4,0.4-1,0.9-1.8,1.6C67.9,58.2,67.4,58.7,67.2,58.8z
	 M97,36.3c0.6-0.3,1.2-0.7,1.9-1c0.7-0.4,1.2-0.5,1.6-0.4c0.4,0.1,0.8,0.5,1.2,1.2c3,5.4,5.2,9.9,6.8,13.5c0.2,0.6,0.3,1.1,0.2,1.4
	c-0.1,0.4-0.6,0.7-1.3,1.1c-1.4,0.7-2.3,1.2-2.7,1.3c0.5,0.9,1,1.9,1.5,2.9c2.9-1.6,5.4-2.9,7.5-4c6.6-3.4,11.3-5.8,14-7.2
	c-0.5-0.8-1.6-3.4-3.3-7.7c-1.4,0.7-2.5,1.1-3.4,1.4c0.8,2.1,1.3,3.3,1.3,3.5c0.2,0.7,0.2,1.2,0,1.7c-0.2,0.4-0.7,0.8-1.4,1.2
	c-1,0.5-3.7,1.9-8.2,4.1c-1.3-2.3-2.5-4.6-3.6-7c4.1-2.2,6.7-3.5,7.7-4c-0.5-0.9-1-1.8-1.4-2.8c-1.2,0.7-3.7,2-7.6,4.1
	c-1.6-3.3-2.7-5.7-3.5-7.3c1.6-0.9,4.2-2.2,7.5-4c0.7-0.4,1.3-0.5,1.8-0.5c0.4,0.1,0.9,0.4,1.3,1c0.2,0.3,0.9,1.4,2.2,3.3
	c1-0.7,2.1-1.3,3-1.8c-1.3-2-2.9-4.5-4.7-7.5c-4.8,2.6-9.3,4.9-13.6,7.2c-2.1,1.1-4.6,2.3-7.2,3.7c0.5,0.8,1,1.7,1.5,2.9
	C96.1,36.8,96.4,36.6,97,36.3z M182.1,9.3c0.1,0,0.3,0,0.7,0c0.3,0,0.7,0,0.9,0c0.7,0,1.1,0.2,1.4,0.5c0.3,0.3,0.4,0.8,0.4,1.6
	c0.2,5.2,0.2,10.2-0.1,15.1c0,0.7-0.2,1.2-0.4,1.4c-0.2,0.2-0.6,0.4-1.2,0.4c-0.2,0-0.5,0-0.8,0c-0.4,0-0.6,0-0.8,0
	c0.1,1.1,0.1,2.2,0,3.3c0.7-0.1,2.6-0.1,5.5-0.1c2.9,0,4.7,0,5.5,0.1c-0.1-1-0.1-2.1,0-3.3c-0.3,0-1.1,0.1-2.3,0.1
	c-1.3,0-1.9-0.6-2-1.9c-0.1-1.6-0.1-4.4-0.1-8.3c0-2.6-0.2-5.4-0.5-8.3l0.3,0c0.9,1.9,2.4,4.6,4.3,8c4.5,7.9,7,12.5,7.6,13.8
	c1.4-0.1,3.1-0.1,5.1,0c-0.2-2.1-0.3-5.4-0.4-10c0-4.5,0.1-8,0.2-10.5c0-0.7,0.2-1.2,0.5-1.4c0.3-0.2,0.8-0.3,1.6-0.3
	c0.4,0,0.7,0,0.9,0c-0.1-1.2,0-2.3,0-3.3c-0.8,0.1-2.6,0.1-5.5,0.1c-2.9,0-4.8,0-5.7-0.1c0.1,1.1,0.1,2.2,0,3.3
	c0.4,0,1.3-0.1,2.7-0.1c0.7,0,1.2,0.2,1.5,0.4c0.3,0.3,0.5,0.8,0.5,1.6c0,1.2,0,3.7-0.1,7.6c0.1,4.5,0.3,7.4,0.4,8.6l-0.2,0
	c-0.7-1.6-2.2-4.3-4.3-8c-3.1-5.2-5.5-9.7-7.2-13.4c-0.5,0.1-1.9,0.1-4.1,0.1c-2.3,0-3.7,0-4.3-0.1C182.2,7.1,182.2,8.2,182.1,9.3z
	 M227.3,34.1c-3-0.7-5-1.2-5.8-1.3c0.3-1,0.5-2,0.7-3.1c0.2,0.1,0.6,0.2,1.2,0.3c1,0.2,1.9-0.2,2.6-1.1c3.2-4.5,6.3-9,9.2-13.4
	c0.8-1.2,0.5-2-0.7-2.3c-1-0.2-2-0.5-3-0.6c0.3-1,0.5-2.1,0.8-3.2c5.8,1.6,9.6,2.5,11.6,2.7c0.3,4.6,1.2,11.7,2.7,21.6
	c0.1,0.7,0.3,1.3,0.5,1.6c0.3,0.4,0.7,0.6,1.3,0.8c0.4,0.1,0.7,0.2,1,0.2c-0.3,1.1-0.5,2.1-0.7,3.1c-0.9-0.3-2.8-0.8-5.8-1.5
	c-3-0.7-5-1.2-5.9-1.3c0.4-1.4,0.6-2.4,0.7-3.1c0.3,0.1,1.3,0.4,3.1,0.8c0.9,0.2,1.4-0.1,1.6-0.9c0.1-0.3,0.1-1.1-0.1-2.3
	c-0.1-1-0.2-1.7-0.2-2c-3.6-1-7-1.8-10.2-2.4c-0.2,0.3-0.4,0.6-0.7,1.1c-0.3,0.4-0.4,0.7-0.5,0.8c-0.6,1-0.9,1.6-1,1.8
	c-0.1,0.4-0.1,0.8,0.1,1.1c0.2,0.3,0.5,0.5,1.2,0.6c1.3,0.3,2.2,0.5,2.8,0.6c-0.3,1-0.5,2.1-0.7,3.1
	C232.3,35.3,230.3,34.9,227.3,34.1z M233.5,24.2l8.4,2c-0.3-2.9-0.6-4.7-0.7-5.5c-0.3-2.3-0.5-4.5-0.7-6.5l-0.3-0.1
	c-0.2,0.3-1.4,2.1-3.7,5.5C234.9,22.1,233.9,23.6,233.5,24.2z M306,72.8c2.4,2,4.6,3.1,6.7,3c2.1,0,4-0.9,5.5-2.6
	c0.7-0.7,2.1-2.4,4.4-5c2.2-2.6,3.6-4.2,4.1-4.8c0.9-1,1.9-1.1,2.9-0.3c0.5,0.4,0.9,0.8,1.3,1.1c0.6-0.9,1.3-1.7,2.1-2.5
	c-0.6-0.5-2.1-1.7-4.4-3.7c-2.3-2-3.8-3.3-4.4-3.9c-0.7,0.9-1.4,1.7-2.1,2.5c0.4,0.3,1,0.8,1.7,1.4c0.6,0.5,0.9,0.9,0.9,1.4
	c0.1,0.4-0.2,0.9-0.7,1.5c-3.3,4.2-6,7.3-8.1,9.5c-1.2,1.2-2.4,1.9-3.6,1.9c-1.2,0.1-2.6-0.6-4.1-1.9c-1.6-1.3-2.4-2.6-2.6-3.9
	c-0.2-1.2,0.3-2.5,1.3-3.9c0.7-0.9,1.9-2.3,3.7-4.4c1.8-2.1,3.3-3.8,4.4-5c0.5-0.5,1-0.8,1.4-0.8c0.5,0,1,0.2,1.5,0.7
	c0.7,0.6,1.3,1.1,1.7,1.5c0.6-0.8,1.3-1.6,2.1-2.5c-0.7-0.5-2.2-1.8-4.6-3.8c-2.3-2-3.8-3.3-4.3-3.8c-0.7,0.9-1.4,1.7-2.1,2.5
	c0.3,0.2,0.7,0.6,1.3,1c0.5,0.4,0.8,0.9,0.8,1.3c0,0.4-0.2,0.9-0.7,1.5c-0.6,0.7-1.9,2.3-4.1,4.8c-2.2,2.5-3.6,4.2-4.2,5
	c-1.5,1.8-2.1,3.8-1.8,6C302.2,68.6,303.5,70.7,306,72.8z M281.5,54.3c0.4-1,1-2,1.5-3c-1.7-0.8-3.4-1.6-5.1-2.5
	c-0.7-0.4-1.1-0.8-1.2-1.2s0-1,0.3-1.6c2.7-5.6,5.2-10.6,7.6-15c0.6,0.3,1.3,0.7,2.1,1.1c0.9,0.4,1.4,0.7,1.5,0.8
	c0.7,0.3,1.1,0.7,1.3,1.1c0.2,0.4,0.2,1,0.1,1.7c-0.5,1.9-1.4,4.4-2.6,7.7c0.4,0.1,0.9,0.3,1.7,0.6c0.8,0.3,1.4,0.5,1.8,0.6
	c0.6-2.3,1.8-6.4,3.8-12.2c-2-0.9-5.5-2.6-10.4-5.1c-4.9-2.5-8-4.2-9.3-4.9c-3.2,4.6-5.8,8-7.7,10.2c0.4,0.3,0.9,0.7,1.7,1.2
	c0.7,0.5,1.2,0.8,1.4,1c1.8-2.7,3.4-4.9,4.7-6.6c0.5-0.6,0.9-0.9,1.4-0.9c0.4-0.1,1,0.1,1.6,0.4c1.4,0.7,2.6,1.4,3.6,1.9
	c-1.7,3.7-4.3,8.7-7.7,15c-0.3,0.6-0.7,1-1.1,1.2c-0.4,0.2-0.9,0.1-1.6-0.2c-1.8-0.9-3.4-1.8-5.1-2.7c-0.4,1-0.9,2-1.5,3
	c1.2,0.6,4.1,2,8.5,4.2C277.3,52.1,280.2,53.6,281.5,54.3z M7.7,162.9c-0.2-0.4-0.3-0.9-0.2-1.5c0.1-0.6,0.2-0.9,0.2-1.1
	c-1.2-0.1-2.3-0.3-3.2-0.5c-0.1,0.8-0.3,2.7-0.7,5.8c-0.4,3-0.7,5-0.9,5.7c1.1,0.1,2.2,0.3,3.2,0.5l0.3-2.3c0.2-1.2,0.7-1.7,1.7-1.5
	c0.2,0,0.8,0.3,1.8,0.8c2.1,1,7.1,3.7,15,8.1c-0.8,0.2-3.4,0.7-7.6,1.5c-4.3,0.9-7.2,1.4-8.8,1.7c-1.3,0.2-2.1,0.3-2.4,0.3
	c-0.8-0.1-1.1-0.7-0.9-1.7l0.4-2.9c-1.1-0.1-2.2-0.3-3.2-0.5c-0.1,1-0.3,3-0.8,6c-0.4,3-0.7,5-0.9,5.9c1.1,0.1,2.1,0.2,3.2,0.5
	l0.1-0.9c0.1-0.7,0.3-1.1,0.6-1.4c0.3-0.3,0.8-0.5,1.5-0.7c9.3-2.2,16.3-3.7,21.2-4.4c0-0.6,0.2-1.5,0.3-2.9
	c0.2-1.3,0.3-2.3,0.5-2.9c-11.2-5.9-17.5-9.4-19-10.3C8.3,163.7,7.9,163.3,7.7,162.9z M235.6,304.4c-1,0-1.9,0.8-1.9,1.9
	c0,1,0.8,1.9,1.9,1.9c1,0,1.9-0.8,1.9-1.9C237.5,305.3,236.6,304.4,235.6,304.4z M33,127.2c2,1.1,3.1,1.7,3.3,1.8
	c0.6,0.4,1,0.8,1.1,1.3c0.1,0.5,0,1.1-0.3,1.8c-0.4,1.1-1.6,3.9-3.5,8.4c-2.5-0.9-4.9-1.9-7.3-2.9c1.7-4.4,2.8-7.1,3.3-8.1
	c-1-0.4-1.9-0.7-2.9-1.2c-0.4,1.3-1.5,4-3.1,8.1c-3.4-1.4-5.8-2.5-7.4-3.3c0.7-1.8,1.7-4.4,3.1-7.9c0.3-0.8,0.6-1.3,1-1.5
	c0.4-0.3,0.9-0.3,1.6-0.1c0.3,0.1,1.6,0.4,3.8,1.1c0.3-1.2,0.7-2.3,1.2-3.3c-2.3-0.7-5.1-1.5-8.4-2.6c-2,5.1-3.9,9.9-5.7,14.3
	c-0.9,2.2-1.9,4.7-3.1,7.5c0.9,0.3,1.9,0.7,3,1.2c0-0.1,0.2-0.4,0.4-1c0.2-0.6,0.5-1.3,0.8-2c0.3-0.7,0.6-1.2,1-1.3
	c0.4-0.2,0.9-0.1,1.6,0.1c5.7,2.1,10.4,4.1,14,5.8c0.6,0.3,0.9,0.6,1.1,1c0.1,0.4,0,0.9-0.3,1.7c-0.6,1.5-1,2.4-1.2,2.8
	c1,0.3,2,0.8,3.1,1.2c1.2-3.1,2.2-5.7,3.1-7.9c2.8-6.9,4.8-11.8,5.9-14.6c-0.9-0.3-3.4-1.5-7.6-3.7C34,125.4,33.4,126.5,33,127.2z
	 M57.9,102.2c-0.6,0.7-2.1,2.7-4.3,5.9c-2.3,3.2-3.6,5.2-4.1,5.9c-0.9-0.7-1.8-1.4-2.8-2c0.3-0.3,0.7-0.9,1.3-1.8
	c0.4-0.6,0.7-1.1,0.6-1.5c0-0.4-0.3-0.8-0.8-1.2c-4.1-3.2-8.2-6.2-12.3-8.8c-1.1-0.8-2.1-0.6-2.9,0.6c-0.7,1-1.2,1.7-1.4,2
	c-0.9-0.7-1.7-1.3-2.6-1.9c0.4-0.5,1.8-2.4,4.1-5.7c0.7-1,1.7-2.4,2.9-4.2c1.3-1.8,2-2.9,2.2-3.2c3.5-5,7.2-6.1,10.9-3.4
	c1.7,1.2,2.7,2.7,2.9,4.6c0.2,1.9-0.5,4.1-2,6.7l0.1,0.2c1.4-0.8,3.1-0.9,5.1-0.4c1.9,0.4,3.1,0.7,3.8,0.7c0.7,0,1.2-0.3,1.6-0.9
	c0.9-1.3,0.1-2.7-2.5-4.1c0.7-0.8,1.2-1.5,1.6-2.3c2.3,1.3,3.6,2.7,4.1,4.1c0.5,1.5,0.2,2.9-0.8,4.3c-1.1,1.5-2.3,2.4-3.5,2.5
	c-1.2,0.1-3.1-0.2-5.7-0.9c-2-0.6-3.4-0.8-4.2-0.7c-0.8,0.1-1.7,0.7-2.6,1.9c-0.2,0.2-0.4,0.5-0.7,0.8c-0.3,0.3-0.5,0.6-0.7,0.9
	c-0.2,0.2-0.4,0.4-0.5,0.6c1.6,1.2,3.3,2.3,4.9,3.4c0.6,0.4,1.1,0.6,1.5,0.5c0.4-0.1,0.8-0.4,1.2-0.9c1.3-1.8,2.1-3,2.6-3.7
	C55.7,100.7,56.6,101.3,57.9,102.2z M42.6,99.3c1.7-2,3.1-3.8,4.2-5.4c1.4-2,2.1-3.5,2-4.7c-0.1-1.2-0.7-2.2-1.9-3.1
	c-1.2-0.9-2.4-1.1-3.5-0.6c-1.1,0.5-2.3,1.6-3.4,3.2c-2.2,3.1-3.5,4.9-4,5.7C37.3,95.5,39.5,97.1,42.6,99.3z M221.3,264.1
	c-1,0-1.9,0.8-1.9,1.9c0,1,0.8,1.9,1.9,1.9c1,0,1.9-0.8,1.9-1.9C223.2,264.9,222.4,264.1,221.3,264.1z M125.5,211.9
	c-0.1-0.3-0.3-0.5-0.6-0.6c-0.5-0.1-0.9,0.1-1.1,0.6l-1.4,4.7c-0.1,0.4-0.1,0.9,0,1.4c0.4,1.3,1.7,2,3,1.6c1.3-0.4,2-1.7,1.6-3
	L125.5,211.9z M284.9,236l-4.4,7.9l3.7,2.1l0.6-1.1l-2.6-1.5l3.8-6.8L284.9,236z M233.6,232.6l-2.4,0.7l2.4,8.7l1.2-0.3l-2.1-7.5
	l1.2-0.3c0.3-0.1,0.5,0.1,0.6,0.3l1.9,7l1.2-0.3l-1.9-7C235.5,232.9,234.5,232.4,233.6,232.6z M246.8,234.8c-0.6,0.1-1,0.7-0.9,1.3
	c0.1,0.6,0.7,1,1.3,0.8c0.6-0.1,1-0.7,0.8-1.3C247.9,235.1,247.4,234.7,246.8,234.8z M299.1,247.1l-3.2,4.5c-0.5,0.8-1.6,1-2.4,0.4
	l-0.6-0.4c-0.8-0.6-1-1.7-0.4-2.4l3.2-4.5c0.5-0.8,1.6-1,2.4-0.4l0.6,0.4C299.5,245.2,299.7,246.3,299.1,247.1z M298,245.7l-0.6-0.4
	c-0.2-0.2-0.5-0.1-0.7,0.1l-3.2,4.5c-0.2,0.2-0.1,0.5,0.1,0.7l0.6,0.4c0.2,0.2,0.5,0.1,0.7-0.1l3.2-4.5
	C298.2,246.1,298.2,245.8,298,245.7z M259.7,234.6l0,0.8c0,0.3-0.2,0.5-0.5,0.5l-0.8,0c-0.3,0-0.5-0.2-0.5-0.5l-0.1-5.5
	c0-0.3,0.2-0.5,0.5-0.5l0.8,0c0.3,0,0.5,0.2,0.5,0.5l0,0.8l1.3,0l0-0.8c0-1-0.8-1.7-1.8-1.7l-0.8,0c-1,0-1.7,0.8-1.7,1.8l0.1,5.5
	c0,1,0.8,1.7,1.8,1.7l0.8,0c1,0,1.8-0.8,1.7-1.8l0-0.8L259.7,234.6z M275.4,233.4l-1.9,5.2c-0.3,0.9-1.3,1.4-2.3,1l-0.7-0.3
	c-0.9-0.3-1.4-1.3-1-2.3l1.9-5.2c0.3-0.9,1.3-1.4,2.3-1l0.7,0.3C275.3,231.5,275.8,232.5,275.4,233.4z M273.9,232.4l-0.7-0.3
	c-0.3-0.1-0.5,0-0.6,0.3l-1.9,5.2c-0.1,0.3,0,0.6,0.3,0.6l0.7,0.3c0.3,0.1,0.5,0,0.6-0.3l1.9-5.2
	C274.3,232.8,274.2,232.5,273.9,232.4z M377.7,130.3c-3.5,2.9-8.8,7.8-15.9,14.7c-0.5,0.5-0.9,0.9-1,1.4c-0.1,0.4-0.1,0.9,0.2,1.5
	c0.2,0.4,0.3,0.7,0.4,0.9c-1.1,0.4-2.1,0.8-3,1.3c-0.3-0.9-1-2.7-2.2-5.6c-1.2-2.9-2-4.7-2.4-5.6c1.3-0.5,2.3-0.9,3-1.2
	c0.1,0.3,0.5,1.3,1.2,3c0.3,0.8,0.9,1.1,1.7,0.8c0.3-0.1,0.9-0.6,1.8-1.4c0.8-0.7,1.3-1.1,1.5-1.4c-1.3-3.5-2.6-6.7-4-9.7
	c-0.3,0-0.7,0-1.3,0.1c-0.5,0-0.8,0.1-0.9,0.1c-1.2,0.1-1.9,0.2-2,0.2c-0.4,0.2-0.7,0.4-0.8,0.7c-0.1,0.3-0.1,0.7,0.2,1.3
	c0.5,1.2,0.9,2.1,1.1,2.6c-1,0.3-2,0.8-3,1.2c-0.3-0.8-1-2.6-2.2-5.5c-1.2-2.9-2-4.7-2.3-5.4c1-0.3,2-0.7,3-1.2
	c0.1,0.2,0.2,0.6,0.4,1.1c0.4,0.9,1.3,1.4,2.4,1.5c5.5,0,11-0.1,16.3-0.3c1.5-0.1,1.9-0.7,1.4-1.9c-0.4-1-0.8-1.9-1.2-2.8
	c1-0.3,2-0.8,3.1-1.3C375.3,124.8,376.8,128.5,377.7,130.3z M369.1,133.2c1.7-1.6,3.3-3,4.9-4.3l-0.1-0.3c-0.3,0-2.5,0.1-6.6,0.2
	c-2.9,0.1-4.8,0.1-5.5,0.2l3.3,8C367.2,134.9,368.6,133.7,369.1,133.2z M388.1,167.3c-0.5-3.7-0.9-6.2-1.1-7.6
	c-0.9,0.2-1.9,0.4-3.2,0.5c0,0.1,0.1,0.5,0.2,1.2s0.3,1.6,0.4,2.5c0.1,0.7,0,1.2-0.2,1.5c-0.2,0.3-0.7,0.6-1.5,0.7
	c-5.9,1-11,1.7-15,2c-0.6,0.1-1.1,0-1.4-0.3c-0.3-0.2-0.5-0.7-0.6-1.4c-0.3-1.8-0.4-3-0.5-3.4c-1,0.2-2.1,0.4-3.3,0.5
	c0.5,2.9,0.9,5.3,1.2,7.3c1.2,7.7,1.9,13.1,2.4,16.3c1.1-0.2,4.8-0.5,11-0.7c-0.1-1.3-0.2-2.5-0.2-3.6c-3.4,0.1-5.5,0.2-6.4,0.1
	c-0.7,0-1.2-0.2-1.6-0.6c-0.3-0.4-0.5-0.9-0.7-1.7c-0.1-0.8-0.5-3.6-1.1-8.3c5.8-1,11.4-1.8,16.7-2.4c0.8-0.1,1.3,0.1,1.7,0.3
	c0.3,0.3,0.6,0.8,0.7,1.5c0.4,2.6,0.6,4.2,0.7,4.8c1.1-0.2,2.2-0.4,3.2-0.5C389.3,174.7,388.8,171.8,388.1,167.3z M345.9,106.8
	c0.5,0.9,1.1,1.6,1.6,2.3c-1.9,1.7-3.7,2.6-5.2,2.6c-1.6-0.1-2.8-0.8-3.9-2.2c-1.1-1.5-1.5-2.9-1.3-4.1c0.3-1.2,1.2-2.9,2.7-5.1
	c1.2-1.7,1.9-2.9,2-3.7c0.2-0.8-0.1-1.8-0.9-3.1c-0.1-0.2-0.3-0.5-0.5-0.9c-0.2-0.4-0.4-0.7-0.6-0.9c-0.2-0.2-0.3-0.5-0.4-0.7
	c-1.6,1.2-3.2,2.4-4.8,3.6c-0.6,0.4-0.9,0.9-1,1.3c-0.1,0.4,0.1,0.9,0.5,1.4c1.3,1.8,2.1,3,2.7,3.6c-0.6,0.4-1.5,1-2.7,1.9
	c-0.5-0.8-1.9-2.8-4.2-6c-2.3-3.1-3.7-5.1-4.3-5.8c0.9-0.6,1.9-1.2,2.7-2c0.2,0.4,0.7,1,1.3,1.8c0.4,0.6,0.8,1,1.2,1.1
	c0.4,0.1,0.8-0.1,1.4-0.4c4.4-2.8,8.5-5.8,12.2-8.9c1.1-0.8,1.2-1.8,0.4-3c-0.7-1-1.2-1.7-1.5-2c0.9-0.6,1.8-1.2,2.6-1.9
	c0.3,0.5,1.7,2.4,4.1,5.8c0.7,1,1.7,2.3,3,4.1c1.3,1.8,2.1,2.9,2.3,3.1c3.6,4.9,3.5,8.7-0.2,11.5c-1.7,1.3-3.4,1.7-5.3,1.3
	c-1.9-0.4-3.8-1.8-5.7-4.1l-0.2,0.1c0.3,1.6-0.1,3.3-1.3,5c-1,1.6-1.6,2.7-1.9,3.4c-0.2,0.6-0.1,1.2,0.3,1.9
	C342.2,109.2,343.7,108.8,345.9,106.8z M345.5,94.9c1.4,1.9,2.7,3.1,3.8,3.4c1.1,0.3,2.3,0,3.5-0.9c1.2-0.9,1.8-1.9,1.7-3.1
	c-0.1-1.2-0.8-2.6-1.9-4.3c-2.2-3-3.6-4.9-4.1-5.6c-1.4,1-3.6,2.6-6.7,4.8C343.1,91.5,344.4,93.4,345.5,94.9z M297.9,215.9
	c-1,0.1-1.7,1.1-1.6,2.1c0.4,2.6,0.4,5.3,0.3,7.9c-0.1,2.6-0.3,5.2-1,7.8c0,0.2-0.1,0.3,0,0.5c0.1,0.7,0.7,1.2,1.5,1.2
	c0.7-0.1,1.2-0.7,1.2-1.5c-0.3-2.6-0.1-5.2,0.2-7.8c0.3-2.6,0.8-5.2,1.5-7.7c0.1-0.2,0.1-0.5,0.1-0.8
	C299.9,216.4,298.9,215.7,297.9,215.9z M329.5,199.9c0,75.2-61.2,136.4-136.3,136.4c-49.9,0-93.6-27-117.4-67.1
	c-0.3-0.1-0.5-0.2-0.7-0.5c-0.2-0.3-0.3-0.6-0.2-0.9c-11.5-20-18.1-43.2-18.1-67.9c0-11.6,1.5-22.9,4.2-33.7
	c-0.3-0.4-0.4-0.9-0.1-1.3c0.1-0.3,0.4-0.5,0.6-0.6c15.7-58,68.8-100.8,131.6-100.8c40.6,0,77.1,17.8,102.1,46.1
	c0.1,0,0.1,0.1,0.2,0.1c0.2,0.1,0.3,0.3,0.3,0.5c1.2,1.3,2.3,2.7,3.4,4.1c0.3,0.2,0.5,0.4,0.6,0.7c0.9,1.1,1.8,2.3,2.7,3.5
	c0.6,0.2,1,0.7,0.9,1.3l0,0C319.8,142.2,329.5,170,329.5,199.9z M303.6,276.6c-1.5-1.4-3-2.8-4.6-4.1c0.1,0.2,0.1,0.4,0.1,0.6
	c0,1-0.8,1.9-1.9,1.9c-1,0-1.9-0.8-1.9-1.9c0-1,0.8-1.9,1.9-1.9c0.1,0,0.2,0,0.3,0c-1.5-1.2-2.9-2.4-4.4-3.6
	c-3.7-2.9-7.4-5.6-11.4-8c-7.8-4.8-16.4-9.3-25.2-8.4c-9.1,0.7-18.1,3.4-27,6.1c-8.9,2.9-17.8,6-26.4,9.5l0,0c-0.1,0-0.2,0-0.2,0
	c12.4,7.6,24,16.3,34.8,26c0.5,0.5,0.6,1.3,0.1,1.8c-0.5,0.5-1.3,0.6-1.8,0.1l0,0c-5.6-4.7-11.4-9.2-17.4-13.4
	c-6-4.2-12.1-8.3-18.4-12c-12.6-7.3-25.9-13.8-40-17.2c-3.5-0.9-7.1-1.4-10.6-1.8l-2.7-0.2c-0.9-0.1-1.8,0-2.7-0.1
	c-1.8,0-3.6-0.1-5.4,0c-7.3,0.2-14.5,1.1-21.6,2.6c-7.1,1.5-14.1,3.6-20.8,6.3c-6.5,2.7-12.9,5.7-18.8,9.5
	c23.5,39.4,66.5,65.8,115.6,65.8C238.9,334.5,279.3,311.5,303.6,276.6z M305.1,274.4c14.2-21.3,22.5-46.9,22.5-74.5
	c0-28.7-9-55.3-24.4-77.2l-2.5,70.6c0,0.9-0.8,1.6-1.7,1.6s-1.6-0.8-1.6-1.7v0l3.4-73.6c0-0.1,0-0.1,0.1-0.2
	c-0.6-0.7-1.1-1.5-1.7-2.2l-36.7,86.2c-0.4,0.8-1.3,1.2-2.2,0.9c-0.8-0.4-1.2-1.3-0.9-2.2v0l38-87.2c-0.8-0.9-1.5-1.8-2.3-2.7
	c-8.1,9.7-16.3,19.3-24.5,28.9l-12.6,14.6l-6.3,7.3c-1.1,1.2-2.3,2.2-3.5,3.4c-1.1,1.2-2.2,2.4-3.2,3.6l-25.6,29
	c-8.6,9.6-17,19.4-25.5,29.1c-0.5,0.5-1.3,0.6-1.8,0.1s-0.6-1.3-0.1-1.8c8.5-9.7,17-19.4,25.4-29.2l25.3-29.3c1-1.2,2.1-2.4,3.1-3.7
	c1-1.3,1.9-2.6,2.9-3.9l6.4-7.3l12.8-14.5c8.5-9.5,17-19,25.6-28.4c-0.2-0.2-0.4-0.4-0.6-0.6l-100.8,55.8c-0.1,0.1-0.3,0.1-0.4,0.1
	c-0.3,0-0.6-0.2-0.8-0.5c-0.2-0.4-0.1-1,0.4-1.2l100.4-55.6c-0.8-0.8-1.5-1.7-2.3-2.5c-0.1,0.2-0.3,0.3-0.5,0.4
	c-2.5,1-5.1,1.5-7.6,1.9l-7.7,1.2l-15.5,2.3l-15.5,2.2l-15.5,2c-0.7,0.1-1.4-0.4-1.4-1.1c-0.1-0.7,0.4-1.3,1-1.4l15.4-2.8l15.4-2.6
	l15.5-2.5l7.7-1.2c2.1-0.4,4.2-0.6,6.4-0.6c-0.9-0.9-1.9-1.8-2.9-2.7c-0.2,0.1-0.5,0.2-0.8,0.2l-16.7-1.7l-8.3-0.8
	c-2.8-0.3-5.6-0.6-8.4-0.7c-0.7,0-1.3-0.6-1.2-1.4c0-0.7,0.6-1.3,1.4-1.2c0,0,0.1,0,0.1,0c2.8,0.4,5.6,0.6,8.3,0.9l8.4,0.8l14.4,1.4
	c-23.6-20.4-54.3-32.8-87.9-32.8c-25.6,0-49.6,7.2-70,19.7l36.2,2.8c1,0.1,1.7,0.9,1.7,1.9c-0.1,1-0.9,1.7-1.9,1.7c0,0,0,0,0,0
	l-36.9-3.9c-0.6-0.1-1.1-0.6-1.1-1.2c-11.6,7.4-22.1,16.6-30.9,27.1c9.3,1.5,18.4,4.4,26.6,9.4c4.2,2.5,8.2,5.6,11.7,8.9
	c3.6,3.3,7,6.7,10.2,10.4c6.5,7.3,11.9,15.6,15.8,24.5c1.9,4.5,3.6,9.1,4.8,13.8c1.2,4.7,2.1,9.5,2.7,14.3c0.1,0.7-0.4,1.4-1.1,1.5
	c-0.7,0.1-1.3-0.4-1.4-1v0c-0.8-4.7-1.9-9.3-3.2-13.8c-1.4-4.5-3-8.9-5-13.2c-1.9-4.3-4.3-8.4-6.9-12.2c-2.6-3.9-5.5-7.6-8.6-11.1
	c-3.1-3.5-6.5-6.8-10-10c-1.8-1.6-3.5-3.1-5.3-4.6c-1.8-1.4-3.7-2.7-5.7-4c-4-2.4-8.1-4.5-12.5-6.2c-4.4-1.7-8.9-3.1-13.5-4.2
	c-0.1,0-0.3-0.1-0.4-0.2c-5.5,6.8-10.3,14.1-14.4,21.9c7,1.2,13.8,3.4,20,7.1c3.2,1.9,6.1,4.4,8.8,6.8c2.7,2.5,5.4,5,7.8,7.8
	c4.9,5.5,9,11.9,11.6,18.9c1.3,3.5,2.3,7.1,3,10.7c0.7,3.6,1.2,7.3,1.5,10.9c0.1,1.3-0.8,2.5-2.1,2.6c-1.3,0.1-2.5-0.8-2.6-2.1
	c0,0,0,0,0-0.1V200c-0.3-3.5-0.6-7-1.2-10.5c-0.6-3.4-1.5-6.8-2.6-10.1c-2.3-6.5-5.9-12.6-10.5-17.9c-2.2-2.7-4.7-5.2-7.3-7.7
	c-2.6-2.4-5.2-4.8-8.1-6.6c-5.8-3.8-12.6-6.1-19.5-7.3c0,0,0,0,0,0c-3.9,7.8-7.1,16-9.4,24.6c1.9,0.6,3.8,1.3,5.6,2.1
	c2.1,0.9,4.2,2,6.2,3.4c1,0.7,2,1.4,2.9,2.2c1,0.9,1.7,1.6,2.5,2.4c1.6,1.6,3.2,3.3,4.8,5.1c1.5,1.8,3,3.7,4.3,5.8
	c1.2,2.1,2.2,4.5,2.8,6.8c1.3,4.7,1.6,9.4,1.8,14c0,1.3-1,2.4-2.3,2.4c-1.3,0-2.3-0.9-2.4-2.2v0c-0.3-4.4-0.7-8.9-1.8-12.9
	c-1.1-4.1-3.2-7.6-6-11c-1.4-1.7-2.9-3.3-4.4-4.9c-1.6-1.7-2.9-3.1-4.7-4.4c-3.1-2.3-6.6-4.3-10.1-6.1c-2.6,10.5-4,21.4-4,32.7
	c0,24.2,6.4,46.9,17.6,66.6c12.1-8.4,25.8-14.1,40.1-17.3c7.3-1.6,14.8-2.6,22.3-2.9c1.9,0,3.7,0,5.6,0c0.9,0,1.9,0,2.8,0l2.9,0.2
	c3.8,0.4,7.5,1,11.2,1.9c14.3,3.5,27.6,9.9,40,17.4c-0.2-0.7,0.1-1.4,0.8-1.7c8.7-3.8,17.5-7.3,26.5-10.3c9-3,18.2-5.6,27.9-6.5
	c2.4-0.2,5-0.1,7.5,0.3c1.2,0.3,2.5,0.5,3.6,0.9l3.5,1.2c4.5,1.8,8.7,4.2,12.8,6.8C291.5,261.8,298.6,267.8,305.1,274.4z
	 M263.2,266.9c-2.1,0-3.8,1.7-3.8,3.8c0,2.1,1.7,3.8,3.8,3.8c2.1,0,3.8-1.7,3.8-3.8C267,268.6,265.3,266.9,263.2,266.9z
	 M125.5,229.1c-0.1-0.3-0.3-0.5-0.6-0.6c-0.5-0.1-0.9,0.1-1.1,0.6l-1.4,4.7c-0.1,0.4-0.1,0.9,0,1.4c0.4,1.3,1.7,2,3,1.6
	c1.3-0.4,2-1.7,1.6-3L125.5,229.1z M92.7,217c-0.7-0.1-1.4,0.4-1.5,1.1l-1.3,8.4c0,0.2,0,0.4,0,0.6c0.1,1.3,1.3,2.3,2.5,2.1
	c1.3-0.1,2.3-1.3,2.1-2.5l-0.8-8.5C93.7,217.7,93.3,217.2,92.7,217z M264,290.2c-1,0-1.9,0.8-1.9,1.9c0,1,0.8,1.9,1.9,1.9
	c1,0,1.9-0.8,1.9-1.9C265.9,291,265.1,290.2,264,290.2z M92.8,239.4c-0.1-0.3-0.3-0.5-0.6-0.6c-0.5-0.1-0.9,0.1-1.1,0.6l-1.4,4.7
	c-0.1,0.4-0.1,0.9,0,1.4c0.4,1.3,1.7,2,3,1.6c1.3-0.4,2-1.7,1.6-3L92.8,239.4z M173.9,90.9c5.5-0.1,10.9,0.5,16.4,0.9l16.3,1.3
	c10.9,0.9,21.8,1.8,32.7,2.8c0,0,0,0,0.1,0c0.7,0.1,1.3-0.5,1.4-1.2c0.1-0.7-0.5-1.3-1.2-1.4c-10.9-0.7-21.8-1.4-32.7-2.2l-16.4-1.2
	c-5.4-0.4-10.9-0.7-16.3-1.6c-0.1,0-0.2,0-0.2,0c-0.7,0-1.3,0.6-1.3,1.3C172.6,90.3,173.2,90.9,173.9,90.9z M222,244.2l-0.8-2.5
	l2.3-0.7l-0.4-1.2l-2.3,0.7L220,238l2.9-0.9l-0.4-1.2l-4.1,1.3l2.8,8.6l4.1-1.3l-0.4-1.2L222,244.2z M218.1,115.6
	c-0.1-0.7-0.7-1.2-1.4-1.1c-10.7,1.4-21.4,3-32.1,4.7l-16,2.5l-8,1.3c-2.7,0.4-5.3,0.8-7.9,2c-0.4,0.2-0.7,0.6-0.8,1
	c-0.1,0.7,0.4,1.4,1.2,1.5c2.8,0.3,5.4-0.1,8.1-0.6l8-1.4l16-2.7c10.6-1.9,21.3-3.8,31.9-5.9C217.8,116.9,218.2,116.2,218.1,115.6z
	 M212.4,247c0.3,0.9-0.2,1.9-1.1,2.3l-2.4,0.8l-3-8.5l2.4-0.8c0.9-0.3,1.9,0.2,2.3,1.1L212.4,247z M211.2,247.4l-1.8-5.2
	c-0.1-0.3-0.4-0.4-0.7-0.3l-1.2,0.4l2.2,6.1l1.2-0.4C211.2,248,211.3,247.7,211.2,247.4z M163.2,229.2c-0.7-0.2-1.4,0.2-1.6,0.9
	l-1.8,5.9c-0.1,0.2-0.1,0.5-0.1,0.8c0.1,1.3,1.2,2.3,2.5,2.3c1.3-0.1,2.3-1.2,2.3-2.5l-0.2-6.2C164.2,229.9,163.8,229.4,163.2,229.2
	z M163.4,205.9c0-0.2-0.2-0.4-0.5-0.5c-0.3,0-0.6,0.2-0.6,0.5l-1.3,8.8c0,0.2,0,0.4,0,0.6c0.2,1,1.1,1.7,2.1,1.6
	c1-0.2,1.7-1.1,1.6-2.1L163.4,205.9z"/>
</svg>
