<?xml version="1.0" encoding="utf-8"?>
<!-- Generator: Adobe Illustrator 24.0.3, SVG Export Plug-In . SVG Version: 6.00 Build 0)  -->
<svg version="1.1" id="benni-blends-logo" xmlns="http://www.w3.org/2000/svg" xmlns:xlink="http://www.w3.org/1999/xlink" x="0px"
	 y="0px" viewBox="0 0 390 196" style="enable-background:new 0 0 390 196;" xml:space="preserve">
<style type="text/css">
	.st0{fill:#FAA527;}
	.st1{fill:#483C46;}
</style>
<path id="tahini" class="st0" d="M143.1,47.2c-2.5,3.1-3.3,5.4-9.6,1.3c-6.3-4.1-1.3-10.3-1.3-10.3S145.5,44.1,143.1,47.2z
	 M141.7,54.7c1.9,1.9,3.3,4.1,4.2,6.5c1.7-1.7,2.7-3.4,1.8-4.4C145.7,54.6,144.7,52.9,141.7,54.7z M143.5,82.5
	c-2.4,2.2-2.7,4.4-2.4,6.3c1.4,0.8,2.7,1.7,3.8,2.7c3.2-2.3,9.2-7.1,7.3-9.1C149.8,79.7,148.9,77.6,143.5,82.5z M118.1,43.1
	c1,1.4,2.1,2.8,3.2,4.1c1.4,0.1,2.7,0.2,4,0.3c0-0.4-0.1-0.8-0.2-1.2c-0.5-5.4-3.5-9.9-10.2-10.1C115.1,39.2,116.7,41.1,118.1,43.1z
	 M131.8,15.1c-1.2,0.1-3-1.6-3.6,1.3c-0.5,2.6,0.7,6.8,2.4,7c2.2,0.3,4.5,0,5.3-2.6C136.9,17.9,135.4,15.9,131.8,15.1z M148.6,35.3
	c0,0,0.6,14,4.3,13.3c3.6-0.7,5.8-0.5,4.4-7.6C155.8,33.8,148.6,35.3,148.6,35.3z M107.4,27.8c-5.2,5.1,0,10.3,0,10.3
	s11.3-8.3,8.7-10.9C113.6,24.7,112.6,22.7,107.4,27.8z M119.9,30.6c0.7,3.6,0.5,5.9,7.6,4.4c7.1-1.5,5.7-8.6,5.7-8.6
	S119.2,27,119.9,30.6z M173.1,108.9c-0.4,0.4-0.6,0.9-0.8,1.4c0.8,1.4,1.7,2.7,2.8,3.8c2.3,0.8,4.8,0.9,7.2,0
	c0.7-0.2,1.1-0.7,0.8-1.5C182.6,110.2,174.8,107.2,173.1,108.9z M151.3,52.1c0,2.9,1.6,4.8,3.1,6.8c1.2,1.6,2.5,3.1,3.7,4.6
	c0.8,1,1.2,3.1,2.6,2.6c1.5-0.5,1-2.5,0.8-4C161,56.8,157.9,52.3,151.3,52.1z M164.4,123.4c-0.9-0.8-1.7-1.6-2.5-2.5
	c-1.3-1.5-2.5-3.2-3.5-4.9C158.2,121.5,162.7,123.1,164.4,123.4z M159,84.2c1.5-2.3,3.2-4.4,5.3-6.3c-0.1,0-0.2,0-0.4,0
	C162.3,78.1,159.9,81.4,159,84.2z M193.1,89.6c0,0-14,0.6-13.3,4.2c0.3,1.7,0.5,3.1,1.2,3.9l11.5-3.2
	C193.6,92.1,193.1,89.6,193.1,89.6z M152.7,67.5c-1.3,0.1-3-1.6-3.6,1.3c-0.5,2.6,0.7,6.8,2.4,7c2.2,0.3,4.5,0,5.3-2.6
	C157.8,70.3,156.3,68.3,152.7,67.5z M172.8,48.8c0,0-10.2,9.7-7.3,11.9c2.9,2.2,4.2,4.1,8.6-1.7C178.6,53.2,172.8,48.8,172.8,48.8z
	 M101.2,47.1h10.3c1.7-4-1.6-7.5-1.6-7.5S103.5,43.9,101.2,47.1z M161.6,41c-1.1,3.5-2.4,5.3,4.6,7.5c7,2.1,9.1-4.9,9.1-4.9
	S162.6,37.5,161.6,41z M164.8,68.3c-1,3.2-2.2,5,2.9,6.9c3.1-2.1,6.5-3.6,10.2-4.6C175.6,69.5,165.7,65.3,164.8,68.3z M64.6,67.3
	c-1.4,1.8-1.4,4.2,0.7,6.2c2.2,1.9,4.3,2.5,5.9-0.5c1.6-3,2.6-6.3,4.6-9.1c0.8-1,0.6-2.7-1.3-2.2C70.7,62.7,67.1,64.3,64.6,67.3z
	 M29,58.5c2.5,2.7,3.4,4.8,8.8-0.1c5.4-4.9,0.5-10.3,0.5-10.3S26.5,55.8,29,58.5z M26.9,79c0,0,11.3-8.3,8.7-10.9
	c-2.6-2.5-3.6-4.6-8.8,0.6C21.7,73.9,26.9,79,26.9,79z M38.6,40.2c0.7,3.6,0.5,5.9,7.6,4.4c7.1-1.5,5.7-8.6,5.7-8.6
	S37.9,36.6,38.6,40.2z M54,48c-3.2-1.8-4.7-3.5-8.3,2.8c-3.6,6.3,2.7,9.9,2.7,9.9S57.2,49.8,54,48z M26.6,82.6
	c-0.5,2.6,0.7,6.8,2.4,7c2.2,0.3,4.5,0,5.3-2.6c0.9-2.8-0.6-4.8-4.2-5.7C28.9,81.5,27.2,79.8,26.6,82.6z M32.5,106.6
	c-1.4,1.5-1.2,3.8,0.4,4.6c2.7,1.3,5.8,1.7,8.8,0.6c0.7-0.2,1.1-0.7,0.8-1.5C42,107.9,34.1,104.9,32.5,106.6z M26.4,106.8
	c0,0,11.3-8.3,8.7-10.9c-2.6-2.5-3.6-4.6-8.8,0.6C21.2,101.6,26.4,106.8,26.4,106.8z M48.3,100.4c7.1-1.5,5.7-8.6,5.7-8.6
	S40,92.4,40.7,96C41.5,99.6,41.2,101.9,48.3,100.4z M48.2,75.9c0,0-1.4-14-4.8-13c-3.6,0.9-5.8,0.7-4,7.8
	C41.2,77.7,48.2,75.9,48.2,75.9z M88.8,33.5c-3.7-1.4-7.6-1.9-11.3-0.8c-2.1,0.6-3.5,2.8-2.8,5.6c0.8,2.9,2.2,4.5,5.1,2.8
	c3-1.7,5.6-3.8,8.9-5.1C90,35.7,90.8,34.2,88.8,33.5z M175.1,89.2c7.1-1.5,5.7-8.6,5.7-8.6s-3.7,0.2-7.2,0.8c-0.9,1-1.7,2.1-2.4,3.4
	c-0.7,1.4-1.2,2.9-1.6,4.5C170.6,89.8,172.3,89.8,175.1,89.2z M78.4,58.8c3-0.6,5-0.5,4.8-4.6h-1.3L81,53.3v-5.2l0.3-0.3
	c-2.6-3.1-7.1-2.2-7.1-2.2S74.9,59.6,78.4,58.8z M90.1,47.1h5.6C93.5,46,92,45,90.1,47.1z M65,47.5c-1.2,0.1-3-1.6-3.6,1.3
	c-0.5,2.6,0.7,6.8,2.4,7c2.2,0.3,4.5,0,5.3-2.6C70.1,50.3,68.5,48.3,65,47.5z M52.1,71c2.9,2.2,4.2,4.1,8.6-1.7
	c4.5-5.8-1.3-10.2-1.3-10.2S49.2,68.9,52.1,71z M50.4,88.7c1.9-3.1,3.7-4.6-2.6-8.4c-6.3-3.8-10,2.5-10,2.5S48.5,91.8,50.4,88.7z
	 M59.5,35.2c-6.3,3.6-2.8,9.9-2.8,9.9s13.1-4.9,11.4-8.1C66.2,33.9,65.8,31.6,59.5,35.2z M98.5,28.6c-1.9-0.7-4,0.3-4.1,2.1
	c-0.2,3.1,0.6,6,2.7,8.4c0.5,0.5,1,0.7,1.7,0.2C100.9,37.8,100.7,29.4,98.5,28.6z M80.8,75.4c-2.9,0.2-4.7,2-6.5,3.5
	c-1.5,1.3-2.9,2.7-4.4,4c-1,0.8-3,1.4-2.4,2.8c0.6,1.4,2.6,0.8,4,0.6C76.8,85.4,81.1,82.1,80.8,75.4z M90.4,60v-1
	c0-1.2-0.5-2.3-1.5-3.2c-0.6-0.6-1.3-1-2-1.2C87.1,57.4,89.4,59.3,90.4,60z M68.1,114.3c3.9,0.6,2.5-13.9,2.5-13.9s-7.9-1.2-8.4,6.3
	C61.7,114.2,64.1,113.7,68.1,114.3z M70.1,92.9c-1.8-3.2-2.2-5.4-8.6-1.9c-6.3,3.6-2.8,9.9-2.8,9.9S71.9,96.1,70.1,92.9z
	 M131.3,117.8c1.2-1.6,2-3.3,2.6-5.2c0.2-0.6,0.3-1.2,0.4-1.8c-2.5,2.5-7.2,7.8-6.2,9.9C129.4,119.9,130.5,118.9,131.3,117.8z
	 M90.1,106.3c-1.7,3.3-0.9,5.8,0.4,7.5v-8.1C90.3,105.9,90.2,106.1,90.1,106.3z M113.5,63.7c2.2,0.3,4.5,0,5.3-2.6
	c0.9-2.8-0.6-4.8-4.2-5.7c-1.3,0.1-3-1.6-3.6,1.3C110.5,59.3,111.8,63.4,113.5,63.7z M108.2,77.8c5.4-4.9,0.5-10.3,0.5-10.3
	s-0.6,0.4-1.5,1v10.2C107.6,78.4,107.9,78.1,108.2,77.8z M50.1,119.7c-3.6,0.9-5.8,0.7-4,7.8c1.8,7,8.9,5.2,8.9,5.2
	S53.7,118.8,50.1,119.7z M42.3,125c-2.6-2.5-3.6-4.6-8.8,0.6c-5.2,5.1,0,10.3,0,10.3S44.9,127.5,42.3,125z M38.5,137.1
	c-2.5,0.5-5.8,8.2-4,9.9c1.5,1.4,3.8,1.4,4.6-0.3c1.4-2.7,1.9-5.8,0.9-8.8C39.8,137.3,39.4,136.9,38.5,137.1z M99.8,173
	c0,0,8.4-11.3,5.1-12.9c-3.2-1.7-4.8-3.3-8.2,3.1S99.8,173,99.8,173z M95.4,140.8c3.4,1.3,5.2,2.7,7.7-4.2c1.1-3.1,0.3-5.3-0.9-6.8
	h-4.8C95.6,133.5,93,139.9,95.4,140.8z M64.4,83.1c0.7-0.2,1.1-0.7,0.8-1.5c-0.6-2.5-8.4-5.5-10-3.7c-1.4,1.5-1.3,3.8,0.4,4.6
	C58.4,83.8,61.5,84.2,64.4,83.1z M131.5,68.2c-0.6,1.3-1.2,3.3-0.6,5.3c0.4-1.5,0.6-3.1,0.6-4.8C131.5,68.5,131.5,68.4,131.5,68.2z
	 M56.1,103.9c-3.2-1.8-4.7-3.5-8.3,2.8c-3.6,6.3,2.7,9.9,2.7,9.9S59.2,105.7,56.1,103.9z M169.1,93.1c-0.1,2.2,0,4.6,0.3,7.1
	l0.5,0.7l4.2-1.2C173.4,96.9,171.8,94.4,169.1,93.1z M190.5,108.6c2.2,0.3,4.5,0,5.3-2.6c0.7-2.2-0.1-4-2.3-5l-5.6,1.6
	C187.9,105.2,189.1,108.4,190.5,108.6z M79.6,68.7c-0.7,7.2,6.5,8,6.5,8s3.7-13.5,0-13.9C82.4,62.4,80.3,61.5,79.6,68.7z
	 M90.2,119.4c-1.6,0-2.7,0.5-3.4,3.1c0.8-0.2,1.5-0.6,2.2-1.3C89.5,120.7,89.9,120,90.2,119.4z M88.2,98.2c1.8-3.2,3.5-4.7-2.9-8.3
	c-6.4-3.6-9.9,2.8-9.9,2.8S86.4,101.4,88.2,98.2z M107.7,115.8c-0.2,0-0.3,0-0.5,0v2.2h0v0c0,1.2,0.5,2.3,1.5,3.2
	c0.1,0.1,0.1,0.1,0.2,0.2c2-0.3,4-1.3,5.8-3.2C112.6,116.3,110.1,116.1,107.7,115.8z M80.5,114.7c3.6-0.7,5.8-0.5,4.4-7.6
	c-1.5-7.1-8.6-5.7-8.6-5.7S77,115.4,80.5,114.7z M187.9,80.4c2.1,0.6,3.7,0.5,5-0.1c-0.4-0.4-0.9-0.8-1.4-1.2
	c-2.6-1.9-5.6-2.5-9-2.1C182.9,78.2,184.3,79.3,187.9,80.4z M154.6,104.4c-0.6-4.4-0.3-8.6,0.9-12.7c-2.3-1-4.8-0.5-4.8-0.5
	S151.4,104.2,154.6,104.4z M124.8,122c-0.5-3.7-1.9-12-4.6-11.3c-3.6,0.9-5.8,0.7-4,7.8c0.5,2.1,1.5,3.4,2.6,4.2h0.5
	C121.4,122.7,123.2,122.5,124.8,122z M117.9,89.9h-5c0.3,0.4,0.6,0.6,1,0.6C115.4,90.8,116.8,90.7,117.9,89.9z M88.7,84
	c0.6,0.2,1.2,0.5,1.8,0.7V73.5C88.7,77.2,86.3,83.1,88.7,84z M115.1,82.3c-1.1,0.1-2.7-1.2-3.4,0.5h5
	C116.2,82.6,115.7,82.4,115.1,82.3z M122.4,71.5c-6.3-3.8-10,2.5-10,2.5s10.7,9,12.6,5.9C126.9,76.8,128.7,75.2,122.4,71.5z
	 M121.7,64.3c2.9,2.2,4.2,4.1,8.6-1.7c0.1-0.1,0.1-0.2,0.2-0.3c-0.6-1.6-1.5-3.1-2.6-4.3c-0.7-0.8-1.5-1.4-2.5-1.9
	C122.8,59.1,120,63,121.7,64.3z M109.2,107c1.9-2.8,3.3-5.9,5.8-8.4c0.9-0.9,0.9-2.6-1.1-2.4c-2.3,0.3-4.6,0.8-6.7,1.7v10.7
	C107.9,108.4,108.6,107.9,109.2,107z M126.9,107.9c2-0.3,3.4-2,2.7-3.7c-1.2-2.8-3.3-5.1-6.3-6.2c-0.7-0.3-1.3-0.2-1.6,0.6
	C120.5,100.8,124.5,108.2,126.9,107.9z M134.6,103.6c-0.2-2.5-0.8-4.7-1.8-6.6C132.2,98.9,132.1,101.4,134.6,103.6z M124,94.7
	c2-0.3,3.5-1.3,4.8-2.4c-1.3-0.8-2.8-1.4-4.5-1.8C123.9,91.7,123.8,93.1,124,94.7z M119.8,169.9c-1.3,0.1-3-1.6-3.6,1.3
	c-0.5,2.6,0.7,6.8,2.4,7c2.2,0.3,4.5,0,5.3-2.6C124.9,172.7,123.3,170.7,119.8,169.9z M39.9,163.8c0,2.9,1.6,4.8,3.1,6.8
	c1.2,1.6,2.5,3.1,3.7,4.6c0.8,1,1.2,3.1,2.6,2.6c1.5-0.5,1-2.5,0.8-4C49.6,168.5,46.5,164,39.9,163.8z M62.8,160.7
	c-3.2-1.8-4.7-3.5-8.3,2.8c-3.6,6.3,2.7,9.9,2.7,9.9S66,162.5,62.8,160.7z M59.6,149.4c-3.7-1.4-7.6-1.9-11.3-0.8
	c-2.1,0.6-3.5,2.8-2.8,5.6c0.8,2.9,2.2,4.5,5.1,2.8c3-1.7,5.6-3.8,8.9-5.1C60.7,151.6,61.5,150.1,59.6,149.4z M41.8,152.7
	c-2.6-2.5-3.6-4.6-8.8,0.6c-5.2,5.1,0,10.3,0,10.3S44.4,155.3,41.8,152.7z M18.8,112.1c0,0-5,6.3,1.3,10.3c6.3,4.1,7.1,1.8,9.6-1.3
	C32.2,118,18.8,112.1,18.8,112.1z M68.3,173.6c-2.6-2.5-3.6-4.6-8.8,0.6c-5.1,5.1,0,10.3,0,10.3S70.9,176.1,68.3,173.6z M78,165.8
	c0.9-2.8-0.6-4.8-4.2-5.7c-1.2,0.1-3-1.6-3.6,1.3c-0.5,2.6,0.7,6.8,2.4,7C74.8,168.8,77.1,168.5,78,165.8z M71.4,179.8
	c-3.6-0.4-5.7-1.3-6.5,5.9c-0.7,7.2,6.5,8,6.5,8S75.1,180.2,71.4,179.8z M24.9,145.9c-3-1.7-6.2-2.9-8.9-5c-1-0.8-2.6-0.7-2.3,1.3
	c0.7,3.8,2.2,7.5,5.1,10.1c1.7,1.5,4.2,1.6,6.2-0.4C27.2,149.6,27.8,147.5,24.9,145.9z M12,67.7c2.7,1.3,5.8,1.7,8.8,0.6
	c0.7-0.2,1.1-0.7,0.8-1.5c-0.6-2.5-8.4-5.5-10-3.7C10.2,64.6,10.4,66.9,12,67.7z M16.5,86.3c3.6-0.7,5.8-0.5,4.4-7.6
	c-1.5-7.1-8.6-5.7-8.6-5.7S12.9,87.1,16.5,86.3z M19.7,54.9c2.2,0.3,4.5,0,5.3-2.6c0.9-2.8-0.6-4.8-4.2-5.7c-1.3,0.1-3-1.6-3.6,1.3
	C16.8,50.5,18.1,54.6,19.7,54.9z M22.1,93.1c-3.7-1.4-7.6-1.9-11.3-0.8C8.6,93,7.3,95.1,8,97.9c0.8,2.9,2.2,4.5,5.1,2.8
	c3-1.7,5.6-3.8,8.9-5C23.2,95.3,24,93.8,22.1,93.1z M3.7,103.1c0,2.9,1.6,4.8,3.1,6.8c1.2,1.6,2.5,3.1,3.7,4.6
	c0.8,1,1.2,3.1,2.6,2.6c1.5-0.5,1-2.5,0.8-4C13.4,107.8,10.3,103.3,3.7,103.1z M83.7,173.2c-3.2-1.8-4.7-3.5-8.3,2.8
	c-3.6,6.3,2.7,9.9,2.7,9.9S86.9,175,83.7,173.2z M11.1,82.3c-2.6-2.5-3.6-4.6-8.8,0.6c-5.2,5.1,0,10.3,0,10.3S13.7,84.8,11.1,82.3z
	 M18,126.5c0,0-12.6-6.1-13.7-2.6c-1.1,3.5-2.4,5.3,4.6,7.5C15.9,133.5,18,126.5,18,126.5z M25.1,132.8c-1.3,0.1-3-1.6-3.6,1.3
	c-0.5,2.6,0.7,6.8,2.4,7c2.2,0.3,4.5,0,5.3-2.6C30.2,135.7,28.6,133.7,25.1,132.8z M144.1,170c-5.4,4.9-0.5,10.3-0.5,10.3
	s11.7-7.7,9.2-10.4C150.4,167.2,149.5,165.1,144.1,170z M161.7,161.2c3.6-0.7,5.8-0.5,4.4-7.6c-1.5-7.1-8.6-5.7-8.6-5.7
	S158.1,162,161.7,161.2z M87.9,167.4c0.8,1,1.2,3.1,2.6,2.6c1.5-0.5,1-2.6,0.8-4c-0.5-5.4-3.5-9.9-10.2-10.1c0,2.9,1.6,4.8,3.1,6.8
	C85.4,164.4,86.7,165.8,87.9,167.4z M151.9,159.9c2.5-3.2-10.9-9-10.9-9s-5,6.3,1.3,10.3C148.6,165.3,149.4,163,151.9,159.9z
	 M185.5,136.3c-2.3,2.5-4.1,5.4-6.8,7.6c-1,0.8-1.2,2.5,0.7,2.5c3.9,0.1,7.8-0.6,11-2.9c1.9-1.4,2.5-3.8,0.9-6.2
	C189.6,134.8,187.7,133.7,185.5,136.3z M134.5,168c-1.5,1.3-2.8,2.7-4.2,4.1c-0.9,0.9-2.9,1.5-2.3,2.9c0.6,1.4,2.6,0.7,4,0.5
	c5.3-1,9.5-4.5,9-11.1C138.1,164.6,136.3,166.4,134.5,168z M170.4,153.7c-1.1,3.5-2.4,5.3,4.6,7.5c7,2.1,9.1-4.9,9.1-4.9
	S171.5,150.2,170.4,153.7z M168.4,163.1c-2.5-0.6-8.7,5-7.9,7.2c0.7,1.9,2.8,2.9,4.3,1.7c2.5-1.8,4.1-4.4,4.6-7.5
	C169.5,163.8,169.2,163.2,168.4,163.1z M154.9,136.9c-2.5,0.1-7,7.2-5.6,9.1c1.3,1.7,3.5,1.9,4.6,0.5c1.9-2.4,2.8-5.4,2.3-8.5
	C156.2,137.2,155.8,136.8,154.9,136.9z M95.4,178.6c0.7,3.6,0.5,5.9,7.6,4.4c7.1-1.5,5.7-8.6,5.7-8.6S94.7,175,95.4,178.6z
	 M92.1,146.8c-6.4-3.6-9.9,2.8-9.9,2.8s11,8.7,12.8,5.5C96.7,151.9,98.4,150.3,92.1,146.8z M96.1,190.1c-1.4,1.5-1.3,3.8,0.4,4.6
	c2.7,1.3,5.8,1.7,8.8,0.6c0.7-0.2,1.1-0.7,0.8-1.5C105.6,191.3,97.7,188.3,96.1,190.1z M136.1,180.6c-6.3-3.8-10,2.5-10,2.5
	s10.7,9,12.6,5.9C140.6,185.9,142.3,184.4,136.1,180.6z M86.2,179.5c0,0-3.7,13.5-0.1,13.9c3.6,0.4,5.7,1.4,6.5-5.9
	C93.5,180.3,86.2,179.5,86.2,179.5z M132.5,161.7c0.5-3.3,0.4-6.8,1.4-10.1c0.4-1.2-0.3-2.7-2-1.7c-3.3,2.1-6.2,4.8-7.5,8.5
	c-0.8,2.1,0.1,4.4,2.7,5.6C129.8,165.1,132,165,132.5,161.7z M108.6,139.9c-3.5,1.8-6.6,4.2-8.4,7.7c-1,2-0.4,4.4,2.1,5.8
	c2.6,1.4,4.8,1.5,5.6-1.8c0.8-3.3,1.1-6.7,2.5-9.9C110.9,140.6,110.4,139,108.6,139.9z M111.6,193.2c2.5,2.7,3.4,4.8,8.8-0.1
	c5.4-4.9,0.5-10.3,0.5-10.3S109.1,190.5,111.6,193.2z M63,18.7c7,2.1,9.1-4.9,9.1-4.9s-12.7-6.1-13.7-2.6C57.4,14.8,56,16.6,63,18.7
	z M136.3,147.7c7.1-1.5,5.7-8.6,5.7-8.6s-14,0.6-13.3,4.2C129.5,146.8,129.2,149.1,136.3,147.7z M151.5,118.7
	c0.9-3.2,1.3-6.7,2.7-9.8c0.6-1.1,0-2.7-1.8-1.9c-0.3,0.1-0.6,0.3-0.9,0.5c-0.2,4.4-1.5,8.3-4,11.7c-0.4,0.5-0.7,1-1.1,1.4
	C148.7,121.8,150.6,121.7,151.5,118.7z M147.1,137.1c1.5-0.5,1-2.6,0.8-4c-0.3-3.8-2-7.2-5.4-8.9c-1.2,0.9-2.5,1.7-3.9,2.4
	c0.6,1.2,1.4,2.2,2.1,3.3c1.2,1.6,2.5,3.1,3.7,4.6C145.3,135.5,145.7,137.5,147.1,137.1z M131.7,136.7c1.8-2.9,3.4-4.4-1.3-7.5
	c-2.3,0.4-4.6,0.6-7.1,0.6h-3.5c-0.5,0.6-0.7,1-0.7,1S129.8,139.8,131.7,136.7z M158.3,133.9c7,2.1,9.1-4.9,9.1-4.9
	s-12.6-6.1-13.7-2.6C152.6,130,151.3,131.9,158.3,133.9z M183,131.2c-2.7-0.2-5.3-0.6-7.8-1.5c-1.6-0.5-3.1-1.2-4.5-1.9
	c-0.3,1.9,0.4,3.3,5.4,4.7C179.4,133.6,181.6,132.6,183,131.2z M117.6,155.7c-2.5,0.4-6,8-4.4,9.7c1.4,1.5,3.7,1.5,4.6-0.1
	c1.5-2.6,2-5.7,1.2-8.7C118.9,156,118.4,155.6,117.6,155.7z M169.6,147c0.8,1,1.2,3.1,2.6,2.6c1.5-0.5,1-2.5,0.8-4
	c-0.5-5.4-3.5-9.9-10.2-10.1c0,2.9,1.6,4.8,3.1,6.8C167.1,143.9,168.4,145.4,169.6,147z M192.3,112.4c-3.6-0.4-5.8-1.3-6.5,5.9
	c0,0.4,0,0.7,0,1c2.4,0.3,4.9,0.2,7.6-0.4c0.1,0,0.2-0.1,0.4-0.1C194.1,115.7,194,112.6,192.3,112.4z M64.5,142.7
	c6.3,4.1,7.1,1.8,9.6-1.3c2.5-3.1-10.9-9-10.9-9S58.2,138.6,64.5,142.7z M76.9,149.7c-1.8-3.2-2.2-5.4-8.6-1.9
	c-6.3,3.6-2.8,9.9-2.8,9.9S78.6,152.9,76.9,149.7z M81,123.7l0.9-1h1.4c0.5-0.9,0.6-1.6,0.1-2.2c-2.5-2.7-3.4-4.8-8.8,0.1
	c-5.4,4.9-0.5,10.3-0.5,10.3s4-2.7,6.9-5.4V123.7z M63.8,126.6c0.8,1,1.2,3.1,2.6,2.6c1.5-0.5,1-2.5,0.8-4
	c-0.5-5.4-3.5-9.9-10.2-10.1c0,2.9,1.6,4.8,3.1,6.8C61.3,123.5,62.6,125,63.8,126.6z M93.6,129.8H87c1.7,3.3,5.8,3.8,5.8,3.8
	S93.2,131.9,93.6,129.8z M115,134.5c1.8-1.6,2.4-3.2,2.5-4.7h-9.1c-1.9,1.9-3.2,3.8-2.2,4.8C108.7,137.3,109.6,139.5,115,134.5z
	 M125,140c-2.6-2.5-3.6-4.6-8.8,0.6c-5.1,5.1,0,10.3,0,10.3S127.6,142.5,125,140z M78.9,138.6c2.7,1.3,5.8,1.7,8.8,0.6
	c0.7-0.2,1.1-0.7,0.8-1.5c-0.6-2.5-8.4-5.5-10-3.7C77.1,135.5,77.2,137.8,78.9,138.6z M137.9,32.3c0.8,2.9,2.2,4.5,5.1,2.8
	c3-1.7,5.6-3.8,8.9-5.1c1.2-0.4,2-1.9,0.1-2.6c-3.7-1.4-7.6-1.9-11.3-0.8C138.5,27.3,137.2,29.4,137.9,32.3z M74,27.5
	c2.2,0.3,4.5,0,5.3-2.6c0.9-2.8-0.6-4.8-4.2-5.7c-1.2,0.1-3-1.6-3.6,1.3C71.1,23.1,72.4,27.3,74,27.5z M76.7,12.8
	c2.9,2.2,4.2,4.1,8.6-1.7C89.8,5.3,84,0.9,84,0.9S73.8,10.5,76.7,12.8z M57,145.5c1.9-3.1,3.7-4.6-2.6-8.4c-6.3-3.8-10,2.5-10,2.5
	S55.1,148.6,57,145.5z M85.4,27.5c2.8-0.6,4.4-2.6,6-4.4c1.3-1.5,2.5-3.1,3.8-4.5c0.8-1,2.8-1.8,2-3.1c-0.8-1.4-2.7-0.4-4,0
	C88,17.1,84.2,21,85.4,27.5z M95.3,10.3c6.3,4.1,7.1,1.8,9.6-1.3C107.3,5.9,94,0,94,0S89,6.3,95.3,10.3z M54.7,25.9
	c2.7,1.3,5.8,1.7,8.8,0.6c0.7-0.2,1.1-0.7,0.8-1.5c-0.6-2.5-8.4-5.5-10-3.7C52.9,22.9,53.1,25.1,54.7,25.9z M40.9,32.5
	c6.3,4.1,7.1,1.8,9.6-1.3c2.5-3.1-10.9-9-10.9-9S34.7,28.4,40.9,32.5z M48,21c2.2,0.3,4.5,0,5.3-2.6c0.9-2.8-0.6-4.8-4.2-5.7
	c-1.3,0.1-3-1.6-3.6,1.3C45.1,16.6,46.4,20.8,48,21z M180.3,43.1c1.2,1.6,2.5,3.1,3.7,4.6c0.8,1,1.2,3.1,2.6,2.6
	c1.5-0.5,1-2.5,0.8-4c-0.5-5.4-3.5-9.9-10.2-10.1C177.3,39.2,178.9,41.1,180.3,43.1z M178.2,29.2c-2.5-2.7-3.4-4.8-8.8,0.1
	c-5.4,4.9-0.5,10.3-0.5,10.3S180.7,31.9,178.2,29.2z M159.6,32.9c1.7,1,3.8,0.4,4.3-1.3c0.7-2.8,0.4-5.8-1.2-8.4
	c-0.4-0.6-0.9-0.9-1.6-0.5C158.8,23.7,157.6,31.7,159.6,32.9z M182.1,54.9c-2.5,1.7-3.6,3.5-1.1,5.8c2.5,2.3,5.4,4.1,7.6,6.8
	c0.8,1,2.5,1.3,2.5-0.7c0.1-3.9-0.5-7.8-2.8-11C187,54,184.6,53.3,182.1,54.9z M149.5,21.2c7,2.1,9.1-4.9,9.1-4.9
	s-12.6-6.1-13.7-2.6C143.8,17.3,142.5,19.1,149.5,21.2z M129.5,12c2.7,1.3,5.8,1.7,8.8,0.6c0.7-0.2,1.1-0.7,0.8-1.5
	c-0.6-2.5-8.4-5.5-10-3.7C127.6,8.9,127.8,11.2,129.5,12z M35.7,36.4c1-0.8,3-1.3,2.5-2.7c-0.6-1.5-2.6-0.9-4-0.7
	c-5.3,0.7-9.7,4-9.6,10.6c2.9-0.2,4.8-1.9,6.7-3.3C32.8,39,34.3,37.7,35.7,36.4z M121,17.2c0,0,3.6-13.5,0-13.9
	c-3.6-0.4-5.7-1.3-6.5,5.9C113.8,16.5,121,17.2,121,17.2z M103,26.5c0,0,11.7-7.7,9.2-10.4c-2.5-2.7-3.4-4.8-8.8,0.1
	C98,21.1,103,26.5,103,26.5z"/>
<path id="benni-blends" class="st1" d="M81,128.9v-5.2l0.9-1h3.8c1.2,0,2.3-0.5,3.3-1.5c1-1,1.5-2.1,1.5-3.2V59
	c0-1.2-0.5-2.3-1.5-3.2c-1-1-2.1-1.5-3.3-1.5h-3.8L81,53.3v-5.2l0.9-1h36.8c8.9,0,15.9,1.9,20.9,5.8s7.5,9,7.5,15.4
	c0,4.3-1.1,8-3.4,11c-2.2,3.1-5.1,5.4-8.7,7c4.9,1.3,8.9,3.7,11.9,7.2c3,3.5,4.6,7.8,4.6,12.9c0,4.9-1.3,9.2-4,12.8
	c-2.7,3.6-6.1,6.3-10.3,8c-4.2,1.7-8.8,2.6-13.9,2.6H81.9L81,128.9z M107.3,82.8h10.1c4.7,0,8.2-1.3,10.6-3.7
	c2.4-2.5,3.6-6,3.6-10.4c0-4.5-1.2-8-3.6-10.6c-2.4-2.6-5.9-3.9-10.6-3.9h-5.7c-1.1,0.1-2.1,0.6-3,1.6c-0.9,1-1.3,2-1.3,3.1V82.8
	L107.3,82.8z M107.3,118c0,1.2,0.5,2.3,1.5,3.2c1,1,2.1,1.5,3.3,1.5h7.3c2.8,0,5.2-0.4,7.2-1.3c2-0.9,3.6-2.1,4.8-3.6
	c1.2-1.6,2-3.3,2.6-5.2c0.5-1.9,0.8-4.1,0.8-6.5c0-4.9-1.2-8.8-3.6-11.8c-2.4-2.9-6.3-4.4-11.7-4.4h-12.1L107.3,118L107.3,118
	L107.3,118z M287.1,128.9v-5.2l0.9-1h1.4c1.2,0,2.3-0.5,3.3-1.5c1-1,1.5-2.1,1.5-3.2V88.2c0-1.2-0.5-2.3-1.5-3.2
	c-1-1-2.1-1.5-3.3-1.5h-1.2l-1.2-1.2v-2.7l0.9-1.2l17.1-7h3.6l1.2,1.2l-1.2,7.7c2.2-3.3,5.1-5.8,8.5-7.7c3.4-1.9,7.4-2.8,11.8-2.8
	c6.4,0,11.4,1.7,15.2,5.1c3.8,3.4,5.6,8.4,5.6,15v28c0,1.2,0.5,2.3,1.5,3.2c1,1,2.1,1.5,3.3,1.5h1.4l0.9,1v5.2l-0.9,0.9h-28
	l-0.9-0.9v-5.2l0.9-1h1.4c1.2,0,2.3-0.5,3.3-1.5c1-1,1.5-2.1,1.5-3.2V90.5c0-3.7-1-6.6-3.1-8.5c-2-1.9-4.7-2.9-8.1-2.9
	c-3.8,0-7,1.4-9.5,4.2c-2.5,2.8-3.8,6.6-3.8,11.3V118c0,1.2,0.5,2.3,1.5,3.2c1,1,2.1,1.5,3.3,1.5h1.4l0.9,1v5.2l-0.9,0.9h-28
	L287.1,128.9z M360.2,128.9v-5.2l0.9-1h1.4c1.2,0,2.3-0.5,3.3-1.5c1-1,1.5-2.1,1.5-3.2V88.2c0-1.2-0.5-2.3-1.5-3.2
	c-1-1-2.1-1.5-3.3-1.5h-1.2l-1.2-1.2v-3.6l19.2-7.3h3.5l1.2,1.2l-1.2,10.8V118c0,1.2,0.5,2.3,1.5,3.2c1,1,2.1,1.5,3.3,1.5h1.4l0.9,1
	v5.2l-0.9,0.9h-28L360.2,128.9z M154.9,106.1c-1.1-5.5-0.7-10.8,1.1-15.9c1.8-5.1,4.9-9.4,9-13c4.2-3.5,9-5.9,14.6-7
	c4.7-0.9,9.1-1,13.1-0.1c4,0.9,7.5,2.5,10.3,4.9c2.8,2.4,5.2,5.2,7,8.4c1.9,3.2,3.2,6.9,4,10.8l-1.4,1.2l-41.7,12.1
	c1.6,4.5,4.4,7.8,8.4,9.8c4,2.1,8.7,2.6,13.9,1.6c9.5-1.9,16.1-7.2,19.7-16l1.1-0.7l1.3,0.2l0.9,1.1c-0.6,7.1-3,13-7.3,17.8
	c-4.3,4.7-9.9,7.8-16.8,9.2c-6,1.2-11.7,0.9-17-0.8c-5.3-1.7-9.7-4.7-13.3-8.8C158.4,116.8,156.1,111.9,154.9,106.1z M169.4,100.2
	l0.5,0.7l23-6.5c1.8-0.5,3-1.3,3.6-2.4c0.6-1.1,0.8-2.3,0.5-3.6c-0.8-4.2-2.7-7.3-5.5-9.4c-2.8-2-6.2-2.7-10-1.9
	c-4.8,1-8.2,3.5-10.3,7.7C169.1,89,168.5,94.1,169.4,100.2z M283.4,155.5v-14.2h7.8c1.6,0,2.8,0.4,3.6,1.3c0.6,0.6,1,1.4,1,2.3
	c0,1.4-1,2.8-2.4,3.1c1.8,0.3,3,1.8,3,3.5c0,1-0.4,2-1.2,2.8c-0.8,0.8-2,1.2-3.6,1.2H283.4z M284.5,142.2v5.4h7.2
	c0.8,0,1.5-0.3,2-0.8c0.5-0.5,0.8-1.2,0.8-1.9c0-0.7-0.3-1.3-0.7-1.8c-0.6-0.6-1.5-0.9-2.7-0.9L284.5,142.2L284.5,142.2z
	 M284.5,148.6v5.9h7c1,0,2-0.2,2.8-1c0.6-0.6,0.9-1.4,0.9-2.1s-0.3-1.4-0.8-1.9c-0.5-0.6-1.4-0.9-2.2-0.9H284.5z M304.6,141.2v13.3
	h9.3v1h-10.4v-14.2L304.6,141.2L304.6,141.2z M326.8,148.4h-6.2v6.1h10.7v1h-11.8v-14.2h11.3v1h-10.2v5.2h6.2L326.8,148.4
	L326.8,148.4z M349.9,141.2v14.2h-1.1l-10.2-12.4h0v12.4h-1.1v-14.2h1.1l10.2,12.4h0v-12.4H349.9z M357.9,155.5v-14.2h5.6
	c2.8,0,4.3,0.8,5.7,2.1c1.3,1.3,2,3.1,2,5c0,2-0.8,3.8-2.1,5.1c-1.4,1.3-2.9,2-5.6,2H357.9z M363.5,154.5c2.4,0,3.6-0.7,4.8-1.7
	c1.1-1.1,1.8-2.7,1.8-4.4c0-1.7-0.6-3.2-1.8-4.4c-1.2-1.1-2.4-1.8-4.8-1.8H359v12.3H363.5z M388.2,143.8c-0.9-0.8-2.8-1.9-5.4-1.9
	c-2,0-4.4,0.8-4.4,3c0,2.2,2.7,2.3,5.2,2.4c2.4,0.2,6.4,0.4,6.4,3.9c0,3.1-3,4.5-6.5,4.5c-3.5,0-5.6-1.5-7.1-2.9l0.7-0.8
	c1.3,1.2,3.2,2.7,6.4,2.7c2.9,0,5.3-1.1,5.3-3.4c0-2.6-2.9-2.9-5.3-3c-3-0.2-6.3-0.4-6.3-3.4c0-3.1,3.1-4,5.6-4c2.8,0,5,1.2,6.1,2.1
	L388.2,143.8z M214.1,128.9v-5.2l0.9-1h1.4c1.2,0,2.3-0.5,3.3-1.5c1-1,1.5-2.1,1.5-3.2V88.2c0-1.2-0.5-2.3-1.5-3.2
	c-1-1-2.1-1.5-3.3-1.5h-1.2l-1.2-1.2v-2.7l0.9-1.2l17.1-7h3.6l1.2,1.2l-1.2,7.7c2.2-3.3,5.1-5.8,8.5-7.7c3.4-1.9,7.4-2.8,11.8-2.8
	c6.4,0,11.4,1.7,15.2,5.1c3.8,3.4,5.6,8.4,5.6,15v28c0,1.2,0.5,2.3,1.5,3.2c1,1,2.1,1.5,3.3,1.5h1.4l0.9,1v5.2l-0.9,0.9h-28
	l-0.9-0.9v-5.2l0.9-1h1.4c1.2,0,2.3-0.5,3.3-1.5c1-1,1.5-2.1,1.5-3.2V90.5c0-3.7-1-6.6-3.1-8.5c-2-1.9-4.7-2.9-8.1-2.9
	c-3.8,0-7,1.4-9.5,4.2c-2.5,2.8-3.8,6.6-3.8,11.3V118c0,1.2,0.5,2.3,1.5,3.2c1,1,2.1,1.5,3.3,1.5h1.4l0.9,1v5.2l-0.9,0.9h-28
	L214.1,128.9z M364.4,53.3c0.7-2.6,1.2-4.7,2-6.7c1.3-3.3,2.9-6.5,7.6-6.3c4.4,0.2,6.7,2.7,7.8,6.4c1.2,4,1.2,7.5-3.1,9.8
	c-1.7,0.9-3.3,2.1-5.1,2.9c-2.9,1.4-5.9,5.1-9,3.1C361,60,363.6,57.2,364.4,53.3z"/>
</svg>
